<svg width="118" height="22" viewBox="0 0 118 22" fill="none" xmlns="http://www.w3.org/2000/svg">
<path d="M16.71 19.1L15.93 17.1H12.69L11.91 19.08L11.1 18.75L13.84 12H14.88L17.58 18.75L16.71 19.1ZM12.99 16.3H15.62L14.31 12.94L12.99 16.3ZM20.4497 19.12C20.023 19.12 19.633 19.01 19.2797 18.79C18.9264 18.57 18.6464 18.26 18.4397 17.86C18.233 17.4533 18.1297 16.9767 18.1297 16.43C18.1297 15.9033 18.233 15.4333 18.4397 15.02C18.653 14.6067 18.933 14.28 19.2797 14.04C19.633 13.8 20.0197 13.68 20.4397 13.68C20.7864 13.68 21.083 13.75 21.3297 13.89C21.583 14.03 21.7797 14.1733 21.9197 14.32V11.6H22.8197V17.74C22.8197 17.9933 22.8797 18.16 22.9997 18.24C23.1264 18.3133 23.263 18.35 23.4097 18.35L23.2197 19.05C22.5864 19.05 22.1997 18.7967 22.0597 18.29C21.913 18.4967 21.7064 18.6867 21.4397 18.86C21.1797 19.0333 20.8497 19.12 20.4497 19.12ZM20.6497 18.32C20.8964 18.32 21.1297 18.2633 21.3497 18.15C21.5764 18.03 21.7664 17.8767 21.9197 17.69V15.11C21.793 14.95 21.6164 14.8033 21.3897 14.67C21.163 14.53 20.913 14.46 20.6397 14.46C20.3197 14.46 20.0397 14.5467 19.7997 14.72C19.5597 14.8933 19.373 15.1267 19.2397 15.42C19.113 15.7067 19.0497 16.0333 19.0497 16.4C19.0497 16.7667 19.1197 17.0967 19.2597 17.39C19.3997 17.6767 19.5897 17.9033 19.8297 18.07C20.0764 18.2367 20.3497 18.32 20.6497 18.32ZM26.7048 19.12C26.2115 19.12 25.7682 19.0067 25.3748 18.78C24.9815 18.5467 24.6715 18.2267 24.4448 17.82C24.2248 17.4067 24.1148 16.9333 24.1148 16.4C24.1148 15.84 24.2282 15.3567 24.4548 14.95C24.6815 14.5433 24.9915 14.23 25.3848 14.01C25.7782 13.79 26.2182 13.68 26.7048 13.68C27.1915 13.68 27.6282 13.79 28.0148 14.01C28.4082 14.23 28.7182 14.5433 28.9448 14.95C29.1782 15.35 29.2948 15.8267 29.2948 16.38C29.2948 16.9333 29.1815 17.4167 28.9548 17.83C28.7282 18.2367 28.4182 18.5533 28.0248 18.78C27.6382 19.0067 27.1982 19.12 26.7048 19.12ZM26.7048 18.32C27.2315 18.32 27.6415 18.1433 27.9348 17.79C28.2282 17.43 28.3748 16.9667 28.3748 16.4C28.3748 16.0533 28.3015 15.7367 28.1548 15.45C28.0082 15.1567 27.8082 14.9233 27.5548 14.75C27.3082 14.57 27.0248 14.48 26.7048 14.48C26.1782 14.48 25.7682 14.6533 25.4748 15C25.1815 15.3467 25.0348 15.8067 25.0348 16.38C25.0348 16.7267 25.1082 17.05 25.2548 17.35C25.4015 17.6433 25.5982 17.88 25.8448 18.06C26.0982 18.2333 26.3848 18.32 26.7048 18.32ZM32.3114 19.12C31.8114 19.12 31.4147 18.9567 31.1214 18.63C30.8347 18.2967 30.6914 17.8233 30.6914 17.21V14.77H29.7914V13.99H30.7114L30.9014 12.35H31.5914V13.99H33.0314V14.77H31.5914V17.28C31.5914 17.6667 31.6714 17.9367 31.8314 18.09C31.9981 18.2433 32.1947 18.32 32.4214 18.32C32.5881 18.32 32.7447 18.2933 32.8914 18.24C33.0447 18.1867 33.1847 18.1233 33.3114 18.05L33.5614 18.77C33.4281 18.85 33.2481 18.9267 33.0214 19C32.7947 19.08 32.5581 19.12 32.3114 19.12ZM36.3507 19.12C35.604 19.12 35.0107 18.8833 34.5707 18.41C34.1374 17.93 33.9207 17.26 33.9207 16.4C33.9207 15.88 34.0174 15.4167 34.2107 15.01C34.4107 14.5967 34.6874 14.2733 35.0407 14.04C35.394 13.8 35.804 13.68 36.2707 13.68C36.7707 13.68 37.184 13.79 37.5107 14.01C37.844 14.2233 38.094 14.5133 38.2607 14.88C38.4274 15.2467 38.5107 15.65 38.5107 16.09C38.5107 16.3233 38.5007 16.55 38.4807 16.77H34.8407C34.9007 17.2567 35.0707 17.6367 35.3507 17.91C35.6307 18.1833 36.0007 18.32 36.4607 18.32C36.7607 18.32 37.0307 18.29 37.2707 18.23C37.5107 18.1633 37.7407 18.08 37.9607 17.98L38.1707 18.75C37.9307 18.8567 37.6607 18.9433 37.3607 19.01C37.0607 19.0833 36.724 19.12 36.3507 19.12ZM34.8307 16.04H37.6807C37.6807 15.5333 37.554 15.1433 37.3007 14.87C37.0474 14.5967 36.6974 14.46 36.2507 14.46C35.864 14.46 35.544 14.5967 35.2907 14.87C35.0374 15.1367 34.884 15.5267 34.8307 16.04ZM47.6182 19.1L46.8382 17.1H43.5982L42.8182 19.08L42.0082 18.75L44.7482 12H45.7882L48.4882 18.75L47.6182 19.1ZM43.8982 16.3H46.5282L45.2182 12.94L43.8982 16.3ZM52.8279 21.2V18.47C52.6879 18.6167 52.4912 18.7633 52.2379 18.91C51.9912 19.05 51.7012 19.12 51.3679 19.12C50.9679 19.12 50.5879 19.0167 50.2279 18.81C49.8746 18.6033 49.5879 18.3 49.3679 17.9C49.1479 17.4933 49.0379 17 49.0379 16.42C49.0379 15.8733 49.1479 15.3967 49.3679 14.99C49.5879 14.5767 49.8812 14.2567 50.2479 14.03C50.6146 13.7967 51.0179 13.68 51.4579 13.68C51.7579 13.68 52.0279 13.7333 52.2679 13.84C52.5146 13.94 52.7279 14.0667 52.9079 14.22V13.8H53.7279V21.2H52.8279ZM51.5679 18.32C51.8346 18.32 52.0779 18.2567 52.2979 18.13C52.5179 18.0033 52.6946 17.8567 52.8279 17.69V14.88C52.6479 14.7533 52.4479 14.6533 52.2279 14.58C52.0146 14.5 51.7879 14.46 51.5479 14.46C51.2612 14.46 50.9979 14.5367 50.7579 14.69C50.5179 14.8433 50.3246 15.0633 50.1779 15.35C50.0312 15.6367 49.9579 15.9833 49.9579 16.39C49.9579 16.79 50.0312 17.1367 50.1779 17.43C50.3312 17.7167 50.5312 17.9367 50.7779 18.09C51.0246 18.2433 51.2879 18.32 51.5679 18.32ZM57.0254 19.12C56.7254 19.12 56.4421 19.0567 56.1754 18.93C55.9087 18.8033 55.6921 18.6 55.5254 18.32C55.3587 18.0333 55.2754 17.6533 55.2754 17.18V13.8H56.1754V17.06C56.1754 17.4667 56.2621 17.78 56.4354 18C56.6087 18.2133 56.8621 18.32 57.1954 18.32C57.4687 18.32 57.7321 18.2667 57.9854 18.16C58.2454 18.0467 58.4754 17.8967 58.6754 17.71V13.8H59.5754V17.65C59.5754 17.9367 59.6354 18.1267 59.7554 18.22C59.8821 18.3067 60.0187 18.35 60.1654 18.35L59.9754 19.05C59.3554 19.05 58.9721 18.8033 58.8254 18.31C58.5921 18.55 58.3221 18.7467 58.0154 18.9C57.7087 19.0467 57.3787 19.12 57.0254 19.12ZM61.3605 19V13.8H62.2605V19H61.3605ZM61.8105 12.91C61.6372 12.91 61.4872 12.8467 61.3605 12.72C61.2405 12.5933 61.1805 12.4467 61.1805 12.28C61.1805 12.0867 61.2372 11.9333 61.3505 11.82C61.4639 11.7067 61.6172 11.65 61.8105 11.65C61.9839 11.65 62.1305 11.7133 62.2505 11.84C62.3772 11.96 62.4405 12.1067 62.4405 12.28C62.4405 12.4667 62.3839 12.62 62.2705 12.74C62.1572 12.8533 62.0039 12.91 61.8105 12.91ZM66.9386 19C66.9186 18.88 66.9086 18.7567 66.9086 18.63C66.9086 18.1967 66.9819 17.81 67.1286 17.47C67.2819 17.1233 67.4786 16.81 67.7186 16.53C67.9586 16.2433 68.2119 15.98 68.4786 15.74C68.7519 15.4933 69.0053 15.26 69.2386 15.04C69.4786 14.8133 69.6753 14.5867 69.8286 14.36C69.9819 14.1333 70.0586 13.8967 70.0586 13.65C70.0586 13.37 69.9553 13.14 69.7486 12.96C69.5419 12.7733 69.2753 12.68 68.9486 12.68C68.6686 12.68 68.4119 12.7367 68.1786 12.85C67.9519 12.9567 67.7386 13.1033 67.5386 13.29L67.0386 12.68C67.3053 12.44 67.5986 12.2467 67.9186 12.1C68.2453 11.9533 68.6219 11.88 69.0486 11.88C69.4419 11.88 69.7853 11.9567 70.0786 12.11C70.3719 12.2567 70.5986 12.46 70.7586 12.72C70.9253 12.98 71.0086 13.27 71.0086 13.59C71.0086 13.91 70.9386 14.2067 70.7986 14.48C70.6586 14.7533 70.4786 15.01 70.2586 15.25C70.0386 15.49 69.8019 15.7233 69.5486 15.95C69.2953 16.17 69.0519 16.3967 68.8186 16.63C68.5853 16.8633 68.3853 17.1067 68.2186 17.36C68.0586 17.6133 67.9586 17.8867 67.9186 18.18H70.9986V19H66.9386ZM75.0447 19.12C74.2647 19.12 73.6714 18.8033 73.2647 18.17C72.858 17.53 72.6547 16.6367 72.6547 15.49C72.6547 14.3367 72.8614 13.4467 73.2747 12.82C73.6947 12.1933 74.2914 11.88 75.0647 11.88C75.8447 11.88 76.438 12.1967 76.8447 12.83C77.2514 13.4633 77.4547 14.3567 77.4547 15.51C77.4547 16.6633 77.2447 17.5533 76.8247 18.18C76.4114 18.8067 75.818 19.12 75.0447 19.12ZM75.0547 18.3C75.3547 18.3 75.6114 18.2133 75.8247 18.04C76.0447 17.86 76.2114 17.5667 76.3247 17.16C76.4447 16.7533 76.5047 16.2067 76.5047 15.52C76.5047 14.6 76.3747 13.9 76.1147 13.42C75.8614 12.94 75.508 12.7 75.0547 12.7C74.7547 12.7 74.4947 12.79 74.2747 12.97C74.0614 13.1433 73.8947 13.4333 73.7747 13.84C73.6614 14.24 73.6047 14.7867 73.6047 15.48C73.6047 16.4 73.7314 17.1 73.9847 17.58C74.2447 18.06 74.6014 18.3 75.0547 18.3ZM78.9308 19C78.9108 18.88 78.9008 18.7567 78.9008 18.63C78.9008 18.1967 78.9741 17.81 79.1208 17.47C79.2741 17.1233 79.4708 16.81 79.7108 16.53C79.9508 16.2433 80.2041 15.98 80.4708 15.74C80.7441 15.4933 80.9974 15.26 81.2308 15.04C81.4708 14.8133 81.6674 14.5867 81.8208 14.36C81.9741 14.1333 82.0508 13.8967 82.0508 13.65C82.0508 13.37 81.9474 13.14 81.7408 12.96C81.5341 12.7733 81.2674 12.68 80.9408 12.68C80.6608 12.68 80.4041 12.7367 80.1708 12.85C79.9441 12.9567 79.7308 13.1033 79.5308 13.29L79.0308 12.68C79.2974 12.44 79.5908 12.2467 79.9108 12.1C80.2374 11.9533 80.6141 11.88 81.0408 11.88C81.4341 11.88 81.7774 11.9567 82.0708 12.11C82.3641 12.2567 82.5908 12.46 82.7508 12.72C82.9174 12.98 83.0008 13.27 83.0008 13.59C83.0008 13.91 82.9308 14.2067 82.7908 14.48C82.6508 14.7533 82.4708 15.01 82.2508 15.25C82.0308 15.49 81.7941 15.7233 81.5408 15.95C81.2874 16.17 81.0441 16.3967 80.8108 16.63C80.5774 16.8633 80.3774 17.1067 80.2108 17.36C80.0508 17.6133 79.9508 17.8867 79.9108 18.18H82.9908V19H78.9308ZM84.9269 19C84.9069 18.88 84.8969 18.7567 84.8969 18.63C84.8969 18.1967 84.9702 17.81 85.1169 17.47C85.2702 17.1233 85.4669 16.81 85.7069 16.53C85.9469 16.2433 86.2002 15.98 86.4669 15.74C86.7402 15.4933 86.9935 15.26 87.2269 15.04C87.4669 14.8133 87.6635 14.5867 87.8169 14.36C87.9702 14.1333 88.0469 13.8967 88.0469 13.65C88.0469 13.37 87.9435 13.14 87.7369 12.96C87.5302 12.7733 87.2635 12.68 86.9369 12.68C86.6569 12.68 86.4002 12.7367 86.1669 12.85C85.9402 12.9567 85.7269 13.1033 85.5269 13.29L85.0269 12.68C85.2935 12.44 85.5869 12.2467 85.9069 12.1C86.2335 11.9533 86.6102 11.88 87.0369 11.88C87.4302 11.88 87.7735 11.9567 88.0669 12.11C88.3602 12.2567 88.5869 12.46 88.7469 12.72C88.9135 12.98 88.9969 13.27 88.9969 13.59C88.9969 13.91 88.9269 14.2067 88.7869 14.48C88.6469 14.7533 88.4669 15.01 88.2469 15.25C88.0269 15.49 87.7902 15.7233 87.5369 15.95C87.2835 16.17 87.0402 16.3967 86.8069 16.63C86.5735 16.8633 86.3735 17.1067 86.2069 17.36C86.0469 17.6133 85.9469 17.8867 85.9069 18.18H88.9869V19H84.9269Z" fill="#325402"/>
<path d="M3.62408 11.0897C2.70032 11.1849 1.87336 11.5761 1.22432 12.2252C0.60128 12.8481 0.23 13.6077 0.0995199 14.5176C0.0734399 14.6986 0.0734399 15.3032 0.0995199 15.4842C0.22992 16.3941 0.6028 17.1537 1.22424 17.7766C1.84568 18.3981 2.60824 18.7725 3.51664 18.9013C3.69768 18.9274 4.30224 18.9274 4.48328 18.9013C5.23512 18.7939 5.9072 18.5085 6.46264 18.0589C7.25288 17.4206 7.75152 16.5261 7.9004 15.4842C7.92648 15.3032 7.92648 14.6986 7.9004 14.5176C7.77152 13.6092 7.39712 12.8466 6.77568 12.2252C6.16808 11.6176 5.42544 11.2462 4.55232 11.1112C4.35904 11.0821 3.82048 11.0682 3.62408 11.0897ZM4.4296 11.4273C5.07096 11.5009 5.71848 11.7725 6.24328 12.1868C6.38752 12.3003 6.70056 12.6133 6.81408 12.7576C7.22072 13.2747 7.47848 13.8793 7.56896 14.5329C7.60272 14.7799 7.60272 15.2249 7.56896 15.4689C7.34344 17.0938 6.09296 18.3443 4.468 18.5699C4.224 18.6037 3.77904 18.6037 3.532 18.5699C2.87832 18.4793 2.27376 18.2216 1.75672 17.8149C1.61248 17.7014 1.29944 17.3884 1.18592 17.2441C0.76856 16.7148 0.50616 16.0873 0.42336 15.4182C0.41416 15.3369 0.40496 15.1481 0.40496 15.0009C0.40496 14.5743 0.45864 14.2459 0.59368 13.8485C0.71952 13.4757 0.89288 13.1473 1.13072 12.8297C1.278 12.6333 1.63248 12.2789 1.82888 12.1316C2.41504 11.6928 3.06864 11.4533 3.81592 11.4043C3.93552 11.3965 4.27464 11.4089 4.4296 11.4273Z" fill="#325402"/>
<path d="M3.67776 12.8834C2.75864 12.9954 2.04208 13.646 1.83496 14.5544C1.79504 14.7247 1.77968 15.0852 1.80424 15.2648C1.9132 16.0841 2.47016 16.7577 3.25272 17.0186C3.48288 17.0953 3.66392 17.1229 3.92328 17.1229C4.4588 17.1229 4.94216 16.9388 5.34872 16.5812C5.51752 16.4324 5.54664 16.3726 5.49448 16.2728C5.46688 16.2176 5.37944 16.1762 5.32264 16.19C5.30112 16.1946 5.23824 16.2406 5.18296 16.2928C4.9068 16.5475 4.5876 16.7071 4.2224 16.7746C4.0168 16.8114 3.67616 16.7976 3.47056 16.7439C2.8016 16.5659 2.2952 16.0319 2.14944 15.3537C2.11568 15.1972 2.11112 14.8305 2.14176 14.6786C2.27832 13.9866 2.78624 13.4372 3.45672 13.2562C3.59632 13.2179 3.6332 13.2148 3.90016 13.2148C4.15184 13.2148 4.20856 13.2193 4.31136 13.2485C4.49552 13.2992 4.67352 13.3759 4.82232 13.468C4.9696 13.5585 5.20744 13.781 5.32096 13.9344C5.35928 13.9851 5.41 14.0357 5.43296 14.048C5.52808 14.0924 5.65696 14.005 5.65696 13.8945C5.65696 13.8285 5.54032 13.6705 5.35776 13.4879C4.96496 13.0951 4.52456 12.9017 3.9676 12.8772C3.87112 12.8727 3.74072 12.8757 3.67776 12.8834Z" fill="#325402"/>
</svg>
