<svg width="169" height="67" viewBox="0 0 169 67" fill="none" xmlns="http://www.w3.org/2000/svg">
<path d="M76.56 0.0639687C75.9337 0.230218 75.405 0.705635 75.1087 1.36772C74.8425 1.95689 74.745 2.89022 74.8687 3.64855C75.0862 4.99313 75.8212 6.14522 76.7812 6.64105C77.2012 6.8598 77.3625 6.89772 77.85 6.90063C78.2775 6.90063 78.2887 6.89772 78.5662 6.79272C79.305 6.50688 79.8262 5.84188 80.0475 4.88813C80.1412 4.48272 80.1412 3.49689 80.0475 3.0798C79.8225 2.0998 79.4212 1.33272 78.84 0.763968C78.4612 0.396469 77.94 0.110635 77.5125 0.034802C77.235 -0.0147815 76.8075 -0.0031147 76.56 0.0639687ZM77.4187 0.918552C78.0825 1.15772 78.7087 2.07355 78.9562 3.1673C79.2225 4.34272 78.87 5.64938 78.1912 5.98772C78.0412 6.06355 77.9925 6.0723 77.8012 6.06355C77.3625 6.04022 76.9237 5.69897 76.5187 5.06313C76.2787 4.6898 76.1475 4.38647 76.035 3.96355C75.7875 3.02438 75.885 2.00647 76.2825 1.38813C76.5937 0.903968 76.9612 0.752302 77.4187 0.918552Z" fill="#325402"/>
<path d="M84.4875 0.0698552C84.1162 0.169022 83.8987 0.279855 83.5462 0.554022C83.175 0.845688 82.9875 1.05861 82.7062 1.50486C82.3087 2.14361 82.0875 2.81736 82.0162 3.61069C81.8812 5.12444 82.5075 6.40486 83.5762 6.80152C83.9212 6.92986 84.39 6.95319 84.78 6.85986C86.25 6.51277 87.3787 4.67819 87.315 2.74736C87.2775 1.66236 86.8462 0.769855 86.13 0.306105C85.6837 0.0144386 85.0387 -0.0788951 84.4875 0.0698552ZM85.3087 0.889439C85.365 0.912772 85.4812 0.991522 85.5637 1.06152C86.1787 1.58069 86.4 2.78527 86.0962 3.95486C85.7962 5.12152 84.9787 6.06652 84.27 6.06944C84.0637 6.06944 83.94 6.01986 83.7487 5.85652C83.46 5.61444 83.2725 5.24694 83.1562 4.70152C83.07 4.29902 83.0962 3.41819 83.2087 3.00694C83.43 2.18736 83.8012 1.56027 84.2962 1.16652C84.4387 1.05569 84.6262 0.939022 84.7162 0.906939C84.9112 0.839855 85.1625 0.831105 85.3087 0.889439Z" fill="#325402"/>
<path d="M57.6937 0.393604C56.3212 0.641518 55.2825 1.44944 54.96 2.52568C54.8662 2.83777 54.5737 4.21444 54.4725 4.83277C54.3562 5.52402 54.2062 6.76652 54.15 7.45485C54.1312 7.7436 54.105 8.0586 54.0937 8.15485C54.0337 8.76735 53.9925 10.7769 54.0187 12.0924C54.03 12.909 54.0487 13.6382 54.0562 13.7111C54.0637 13.784 54.0787 14.0728 54.0937 14.3528C54.1462 15.5253 54.3112 17.4474 54.4912 18.9465C54.675 20.5011 54.9412 22.2365 55.0537 22.6069C55.2375 23.2194 55.515 23.8028 55.9012 24.3919C56.73 25.6665 57.6187 26.3869 62.4187 29.6799C65.0625 31.494 65.9625 32.1386 66.1087 32.3282C66.3562 32.6519 66.525 33.1361 66.6975 33.9936C66.7762 34.4049 66.8025 34.7461 66.9 36.6944C66.9675 37.9836 67.0312 38.9578 67.0537 39.0015C67.1737 39.2378 67.5712 39.3369 67.8375 39.1969C67.9087 39.159 67.9987 39.0803 68.0362 39.0219C68.1 38.9198 68.1 38.8644 68.0475 37.7678C67.935 35.5365 67.9275 35.3878 67.89 34.7548C67.8712 34.3698 67.7437 33.6494 67.6087 33.139C67.4512 32.544 67.2262 32.0832 66.9225 31.7565C66.69 31.5028 65.9362 30.9603 63.0937 29.009C59.8387 26.7778 58.47 25.7744 57.8062 25.1299C57.0637 24.4124 56.4487 23.4499 56.1562 22.5515C55.9912 22.0353 55.71 20.1569 55.485 18.0715C54.9712 13.3028 54.9562 9.08235 55.4475 5.61735C55.59 4.59652 55.9537 2.85527 56.085 2.5461C56.3025 2.04152 56.775 1.60985 57.3562 1.38527C57.7162 1.24818 57.9712 1.1986 58.365 1.1986C59.52 1.1986 60.5212 1.84319 60.8737 2.81735L60.9562 3.05069L60.9675 8.37943L60.975 13.7053L60.7425 13.8161C60.45 13.9561 60.0037 14.2828 59.79 14.519C59.0325 15.3415 58.9312 16.5403 59.5275 17.5436C59.7037 17.8469 59.9137 18.0803 60.81 18.9815C64.1062 22.2919 66.705 24.7244 68.4487 26.1244C68.7525 26.3694 69.0562 26.5882 69.1275 26.6144C69.3 26.6786 69.4687 26.6728 69.6375 26.5999C69.8362 26.5124 69.915 26.3869 69.8925 26.2003C69.8737 26.0544 69.8662 26.0457 69.2362 25.5324C67.4437 24.0769 65.1487 21.9361 62.0137 18.8007C60.6112 17.4007 60.495 17.2607 60.3187 16.7736C60.2325 16.5374 60.2175 15.9074 60.2962 15.6653C60.3825 15.3853 60.6187 15.0411 60.8662 14.8369C61.2825 14.4899 61.6725 14.3499 62.2087 14.3499C63.135 14.3499 63.51 14.5394 65.1562 15.8607C67.0762 17.4007 70.8 20.2649 72.3562 21.4024C73.1662 21.9915 73.4737 22.2015 74.2875 22.709C76.1812 23.8903 76.9687 24.4882 77.5875 25.2203C77.9962 25.7015 78.3937 26.349 78.7162 27.0461C79.0687 27.8132 79.2375 28.6678 79.2375 29.6799C79.2337 30.4149 79.1812 30.8349 78.96 31.8557L78.7575 32.8065L78.7875 33.3432C78.825 33.9586 78.8887 35.624 78.9187 36.7528C78.9562 38.1965 78.9825 38.809 79.0162 38.8673C79.2037 39.2173 79.8712 39.1969 80.025 38.8382C80.055 38.7653 80.0587 38.3832 80.0287 37.374C79.9762 35.6298 79.9162 33.9848 79.8787 33.3694L79.8487 32.8882L80.0475 31.9432C80.265 30.934 80.325 30.4236 80.325 29.6186C80.325 28.1165 79.9462 26.8886 79.0612 25.5119C78.3 24.3278 77.415 23.5753 75.0712 22.1111C73.7625 21.2915 73.4437 21.0611 70.3912 18.7453C69.2737 17.8936 67.56 16.5636 66.5887 15.7878C65.6175 15.0119 64.7887 14.3557 64.74 14.3294L64.6575 14.2799L64.635 11.9174C64.5937 7.9011 64.5075 5.48902 64.3912 5.03402C64.1625 4.15902 63.4162 3.49694 62.3212 3.19652L62.04 3.12069L61.9912 2.8961C61.74 1.70319 60.7012 0.758186 59.2837 0.437351C58.9275 0.358601 58.0387 0.332352 57.6937 0.393604ZM62.3212 4.1211C62.7975 4.3311 63.1912 4.74235 63.3187 5.1711C63.4125 5.4861 63.495 7.9186 63.5475 11.7919C63.5737 13.7811 63.5775 13.7228 63.4125 13.6528C63.2812 13.5974 62.6212 13.5069 62.3625 13.5069H62.1112L62.0887 12.8011C62.055 11.9028 62.055 4.02777 62.085 4.02777C62.1 4.02777 62.205 4.0686 62.3212 4.1211Z" fill="#325402"/>
<path d="M102.937 0.396545C101.869 0.58321 101.006 1.09363 100.451 1.86946C100.286 2.10279 100.072 2.59863 100.009 2.89613L99.96 3.12071L99.6787 3.19654C98.5837 3.49696 97.8375 4.15905 97.6087 5.03405C97.4925 5.48613 97.4062 7.89821 97.365 11.9174L97.3425 14.2799L97.26 14.3295C97.2112 14.3557 96.3825 15.012 95.4112 15.7878C94.44 16.5636 92.7262 17.8936 91.605 18.7453C88.5862 21.0407 88.2187 21.3032 87 22.0645C84.3187 23.7357 83.43 24.5495 82.5825 26.107C82.0725 27.0461 81.8512 27.717 81.7312 28.6999C81.6075 29.6974 81.6712 30.6249 81.9525 31.9432L82.1512 32.8882L82.1212 33.3695C82.0837 33.979 82.0237 35.6182 81.9712 37.374C81.9412 38.3832 81.945 38.7653 81.975 38.8382C82.0837 39.0949 82.4812 39.1999 82.785 39.054C83.0287 38.9374 83.025 38.9811 83.0812 36.7528C83.1112 35.624 83.175 33.9615 83.2125 33.3403C83.2275 33.0428 83.2275 32.7336 83.2125 32.6549C83.1937 32.5732 83.1037 32.1474 83.0062 31.707C82.8 30.7474 82.7475 30.2195 82.7775 29.3882C82.8187 28.2215 83.0062 27.5245 83.5575 26.5007C84.3525 25.019 85.0987 24.3395 87.7125 22.709C88.095 22.4699 88.5337 22.1899 88.6875 22.0849C89.9512 21.2186 94.1587 18.0074 96.825 15.8724C97.9012 15.012 98.415 14.6561 98.8125 14.4986C99.1987 14.344 99.9375 14.3003 100.327 14.4082C100.931 14.5715 101.419 14.9886 101.651 15.534C101.741 15.7411 101.752 15.814 101.752 16.1757C101.752 16.6161 101.707 16.797 101.512 17.1382C101.355 17.4124 101.149 17.6399 99.9862 18.8007C96.8512 21.9361 94.5562 24.077 92.7637 25.5324C92.1337 26.0457 92.1262 26.0545 92.1075 26.2003C92.085 26.387 92.1637 26.5124 92.3625 26.5999C92.5312 26.6728 92.7 26.6786 92.8725 26.6145C93.1087 26.527 94.5525 25.3224 95.9437 24.0507C97.9725 22.1957 101.839 18.4011 102.274 17.8353C102.697 17.284 102.889 16.6949 102.851 16.0445C102.806 15.2511 102.461 14.6445 101.767 14.1311C101.614 14.0203 101.385 13.8774 101.257 13.8161L101.025 13.7053L101.032 8.37946L101.044 3.05071L101.13 2.81738C101.422 2.01529 102.139 1.43488 103.072 1.24529C103.361 1.18696 103.901 1.18696 104.175 1.24238C104.966 1.40571 105.641 1.91321 105.915 2.54613C106.046 2.85529 106.41 4.59655 106.552 5.61738C107.13 9.70071 107.006 14.9653 106.196 20.609C105.971 22.1928 105.881 22.572 105.559 23.2515C105.266 23.8786 104.737 24.6049 104.194 25.1299C103.534 25.7715 102.169 26.769 98.9062 29.009C96.0637 30.9603 95.31 31.5028 95.0775 31.7565C94.7737 32.0832 94.5487 32.544 94.3912 33.139C94.2525 33.6582 94.1287 34.3728 94.1062 34.7695C94.095 34.9853 94.08 35.3003 94.0687 35.4695C94.0575 35.6386 94.0425 35.9653 94.0312 36.1986C94.02 36.432 93.9862 37.1378 93.9525 37.7678C93.9 38.8645 93.9 38.9199 93.9637 39.022C94.0687 39.1882 94.2525 39.2699 94.4925 39.2553C94.6987 39.2407 94.8337 39.1707 94.9312 39.0249C94.965 38.9753 94.995 38.707 95.0212 38.1645C95.0437 37.7328 95.0962 36.7178 95.1375 35.9099C95.2012 34.6965 95.2275 34.3611 95.3062 33.982C95.4787 33.1274 95.6475 32.649 95.8912 32.3282C96.0375 32.1415 96.9262 31.5028 99.5812 29.6799C102.945 27.3699 104.314 26.3665 105.007 25.6986C105.892 24.844 106.545 23.829 106.886 22.7645C107.227 21.7086 107.779 17.1557 107.906 14.3528C107.921 14.0728 107.936 13.784 107.944 13.7111C107.951 13.6382 107.97 12.909 107.981 12.0924C108.007 10.777 107.966 8.76738 107.906 8.15488C107.895 8.05863 107.869 7.74363 107.85 7.45488C107.794 6.76654 107.644 5.52404 107.527 4.82988C107.422 4.20863 107.089 2.65988 107.014 2.43821C106.669 1.46113 105.757 0.723209 104.531 0.437378C104.186 0.355713 103.297 0.332378 102.937 0.396545ZM99.9375 8.01779C99.9375 10.214 99.9262 12.3461 99.9112 12.7574L99.8887 13.507H99.6337C99.3787 13.507 98.7187 13.5974 98.5875 13.6528C98.4225 13.7228 98.4262 13.784 98.4525 11.7628C98.5012 7.94196 98.5875 5.48613 98.6812 5.17113C98.7712 4.87363 98.9512 4.61988 99.225 4.40405C99.4312 4.24071 99.8175 4.03071 99.9112 4.02779C99.9262 4.02779 99.9375 5.82446 99.9375 8.01779Z" fill="#325402"/>
<path d="M69.8438 3.98111C69.5588 4.05111 69.3563 4.15319 69.105 4.35153C68.0213 5.20611 68.0175 7.23611 69.0938 8.91319C70.1775 10.6019 71.9775 11.2261 73.0988 10.3015C73.845 9.68319 74.0925 8.54569 73.7588 7.25069C73.3575 5.68152 72.1575 4.32236 70.9088 4.01319C70.5713 3.93153 70.1063 3.91694 69.8438 3.98111ZM70.7663 4.87944C71.235 5.06027 71.8313 5.62902 72.195 6.23569C72.4088 6.60027 72.6188 7.10486 72.7163 7.51319C72.8325 8.00319 72.8363 8.68861 72.72 9.05027C72.5775 9.50236 72.2963 9.82611 72 9.87569C71.565 9.94861 70.9238 9.59277 70.4025 8.98319C69.36 7.76694 69.0525 5.87986 69.7613 5.05736C70.0163 4.76277 70.3238 4.70736 70.7663 4.87944Z" fill="#325402"/>
<path d="M90.6637 3.9724C90.585 3.98698 90.3975 4.0424 90.2513 4.0949C88.5262 4.72198 87.2212 7.10782 87.5812 8.97157C87.6787 9.46448 87.8437 9.80865 88.1475 10.1441C88.5487 10.5816 89.1712 10.7945 89.82 10.7099C90.75 10.5903 91.6838 9.91948 92.325 8.91323C93.1238 7.65615 93.3525 6.21532 92.9175 5.16532C92.67 4.57032 92.19 4.13573 91.6238 3.99865C91.365 3.9374 90.9262 3.92282 90.6637 3.9724ZM91.41 4.84448C91.8562 5.06032 92.1225 5.84198 92.025 6.6674C91.8975 7.77573 91.3238 8.83156 90.5062 9.47031C89.6737 10.1178 89.04 9.9924 88.7175 9.12031C88.6425 8.91031 88.6312 8.82281 88.635 8.31532C88.635 7.66198 88.6912 7.39948 88.9612 6.76948C89.3587 5.83032 90.1425 5.0049 90.8063 4.82115C90.9975 4.76865 91.2713 4.78032 91.41 4.84448Z" fill="#325402"/>
<path d="M80.5312 7.34405C79.1362 7.42863 77.835 7.9303 76.92 8.7353C76.6237 8.9978 76.4025 9.25155 76.1325 9.64822C75.8437 10.0711 75.7237 10.1995 75.42 10.4182C75.0937 10.6545 74.6775 10.844 73.995 11.0774C73.1437 11.3661 72.66 11.6607 72.2625 12.1274C71.76 12.7253 71.6287 13.4136 71.85 14.3032C71.9962 14.8865 72.3675 15.5836 72.795 16.0678C73.485 16.8524 74.5875 17.4153 75.8362 17.6253C76.1437 17.6778 76.3462 17.6895 76.875 17.6895C77.64 17.6924 77.8575 17.6632 78.75 17.4386C79.9162 17.147 80.6512 17.0449 81.1987 17.0974C81.6562 17.1411 82.2562 17.2549 82.95 17.4299C83.865 17.6603 84.09 17.6895 84.8625 17.6924C85.5825 17.6924 85.8825 17.6574 86.49 17.4999C87.2325 17.3074 87.7912 17.0361 88.3725 16.587C88.8375 16.2282 89.1112 15.9249 89.4 15.4553C89.8275 14.7582 90.0225 14.0845 89.9887 13.4195C89.9587 12.8099 89.76 12.384 89.2912 11.9261C88.9012 11.544 88.4587 11.3049 87.6937 11.0628C86.6175 10.7215 86.1075 10.3745 85.6087 9.64238C85.5 9.48197 85.3575 9.28363 85.29 9.20197C84.5175 8.25988 83.1675 7.57447 81.7312 7.39655C81.3862 7.3528 80.7975 7.32655 80.5312 7.34405ZM81.6562 8.24822C82.4962 8.37947 83.205 8.66822 83.7862 9.11155C84.15 9.38863 84.3187 9.56947 84.6187 10.007C84.7575 10.2082 84.9487 10.4532 85.0387 10.5553C85.5637 11.1299 86.2912 11.5499 87.2737 11.8474C87.9337 12.0457 88.3237 12.282 88.6237 12.667C88.8187 12.9178 88.8825 13.0928 88.9012 13.4399C88.9537 14.2711 88.455 15.2978 87.6937 15.9249C87.0037 16.4907 86.085 16.8145 85.05 16.8524C84.4612 16.8728 84.0937 16.8261 83.3137 16.6307C82.1625 16.342 81.5625 16.2486 80.8425 16.2486C80.1712 16.2486 79.6012 16.3361 78.5062 16.6103C77.58 16.8407 77.5537 16.8436 76.875 16.8436C76.3162 16.8436 76.2187 16.8378 75.885 16.7649C75.1762 16.6132 74.6212 16.3653 74.1337 15.989C73.8037 15.7324 73.6162 15.5224 73.3725 15.1432C72.8775 14.382 72.705 13.5157 72.9337 12.9878C73.095 12.6174 73.44 12.2849 73.8825 12.072C73.9912 12.0165 74.2687 11.9086 74.4937 11.8328C75.84 11.372 76.5487 10.8907 77.0625 10.0945C77.6625 9.16113 78.6037 8.53988 79.7962 8.2978C80.4262 8.16947 81.0562 8.15197 81.6562 8.24822Z" fill="#325402"/>
<path d="M8.565 62.782L7.395 59.782H2.535L1.365 62.752L0.15 62.257L4.26 52.132H5.82L9.87 62.257L8.565 62.782ZM2.985 58.582H6.93L4.965 53.542L2.985 58.582ZM13.3195 62.812C12.7295 62.812 12.1945 62.737 11.7145 62.587C11.2445 62.437 10.8545 62.242 10.5445 62.002L11.1145 60.877C11.3745 61.097 11.6995 61.282 12.0895 61.432C12.4895 61.572 12.9145 61.642 13.3645 61.642C13.9245 61.642 14.3445 61.552 14.6245 61.372C14.9145 61.182 15.0595 60.942 15.0595 60.652C15.0595 60.442 15.0045 60.257 14.8945 60.097C14.7945 59.937 14.6045 59.782 14.3245 59.632C14.0445 59.472 13.6395 59.302 13.1095 59.122C12.3795 58.872 11.8295 58.577 11.4595 58.237C11.0995 57.887 10.9195 57.407 10.9195 56.797C10.9195 56.197 11.1795 55.692 11.6995 55.282C12.2295 54.862 12.9595 54.652 13.8895 54.652C14.3895 54.652 14.8345 54.707 15.2245 54.817C15.6145 54.917 15.9645 55.047 16.2745 55.207L15.8995 56.317C15.6295 56.157 15.3195 56.027 14.9695 55.927C14.6295 55.827 14.2495 55.777 13.8295 55.777C13.3095 55.777 12.9145 55.882 12.6445 56.092C12.3745 56.302 12.2395 56.532 12.2395 56.782C12.2395 57.022 12.3445 57.227 12.5545 57.397C12.7645 57.567 13.1745 57.752 13.7845 57.952C14.7745 58.282 15.4645 58.647 15.8545 59.047C16.2445 59.447 16.4395 59.947 16.4395 60.547C16.4395 61.247 16.1545 61.802 15.5845 62.212C15.0245 62.612 14.2695 62.812 13.3195 62.812ZM20.3361 62.812C19.7461 62.812 19.2111 62.737 18.7311 62.587C18.2611 62.437 17.8711 62.242 17.5611 62.002L18.1311 60.877C18.3911 61.097 18.7161 61.282 19.1061 61.432C19.5061 61.572 19.9311 61.642 20.3811 61.642C20.9411 61.642 21.3611 61.552 21.6411 61.372C21.9311 61.182 22.0761 60.942 22.0761 60.652C22.0761 60.442 22.0211 60.257 21.9111 60.097C21.8111 59.937 21.6211 59.782 21.3411 59.632C21.0611 59.472 20.6561 59.302 20.1261 59.122C19.3961 58.872 18.8461 58.577 18.4761 58.237C18.1161 57.887 17.9361 57.407 17.9361 56.797C17.9361 56.197 18.1961 55.692 18.7161 55.282C19.2461 54.862 19.9761 54.652 20.9061 54.652C21.4061 54.652 21.8511 54.707 22.2411 54.817C22.6311 54.917 22.9811 55.047 23.2911 55.207L22.9161 56.317C22.6461 56.157 22.3361 56.027 21.9861 55.927C21.6461 55.827 21.2661 55.777 20.8461 55.777C20.3261 55.777 19.9311 55.882 19.6611 56.092C19.3911 56.302 19.2561 56.532 19.2561 56.782C19.2561 57.022 19.3611 57.227 19.5711 57.397C19.7811 57.567 20.1911 57.752 20.8011 57.952C21.7911 58.282 22.4811 58.647 22.8711 59.047C23.2611 59.447 23.4561 59.947 23.4561 60.547C23.4561 61.247 23.1711 61.802 22.6011 62.212C22.0411 62.612 21.2861 62.812 20.3361 62.812ZM28.5377 62.812C27.7977 62.812 27.1327 62.642 26.5427 62.302C25.9527 61.952 25.4877 61.472 25.1477 60.862C24.8177 60.242 24.6527 59.532 24.6527 58.732C24.6527 57.892 24.8227 57.167 25.1627 56.557C25.5027 55.947 25.9677 55.477 26.5577 55.147C27.1477 54.817 27.8077 54.652 28.5377 54.652C29.2677 54.652 29.9227 54.817 30.5027 55.147C31.0927 55.477 31.5577 55.947 31.8977 56.557C32.2477 57.157 32.4227 57.872 32.4227 58.702C32.4227 59.532 32.2527 60.257 31.9127 60.877C31.5727 61.487 31.1077 61.962 30.5177 62.302C29.9377 62.642 29.2777 62.812 28.5377 62.812ZM28.5377 61.612C29.3277 61.612 29.9427 61.347 30.3827 60.817C30.8227 60.277 31.0427 59.582 31.0427 58.732C31.0427 58.212 30.9327 57.737 30.7127 57.307C30.4927 56.867 30.1927 56.517 29.8127 56.257C29.4427 55.987 29.0177 55.852 28.5377 55.852C27.7477 55.852 27.1327 56.112 26.6927 56.632C26.2527 57.152 26.0327 57.842 26.0327 58.702C26.0327 59.222 26.1427 59.707 26.3627 60.157C26.5827 60.597 26.8777 60.952 27.2477 61.222C27.6277 61.482 28.0577 61.612 28.5377 61.612ZM37.3676 62.812C36.6276 62.812 35.9776 62.642 35.4176 62.302C34.8676 61.952 34.4426 61.472 34.1426 60.862C33.8426 60.242 33.6926 59.532 33.6926 58.732C33.6926 57.982 33.8426 57.297 34.1426 56.677C34.4526 56.057 34.8926 55.567 35.4626 55.207C36.0326 54.837 36.7026 54.652 37.4726 54.652C37.9126 54.652 38.2976 54.692 38.6276 54.772C38.9676 54.852 39.2926 54.967 39.6026 55.117L39.1976 56.257C38.9176 56.117 38.6476 56.017 38.3876 55.957C38.1376 55.887 37.8576 55.852 37.5476 55.852C36.8476 55.852 36.2576 56.107 35.7776 56.617C35.3076 57.117 35.0726 57.812 35.0726 58.702C35.0726 59.242 35.1726 59.732 35.3726 60.172C35.5726 60.612 35.8476 60.962 36.1976 61.222C36.5576 61.482 36.9776 61.612 37.4576 61.612C37.8376 61.612 38.1626 61.572 38.4326 61.492C38.7026 61.402 38.9926 61.277 39.3026 61.117L39.7226 62.257C39.4126 62.427 39.0626 62.562 38.6726 62.662C38.2926 62.762 37.8576 62.812 37.3676 62.812ZM41.2928 62.632V54.832H42.6428V62.632H41.2928ZM41.9678 53.497C41.7078 53.497 41.4828 53.402 41.2928 53.212C41.1128 53.022 41.0228 52.802 41.0228 52.552C41.0228 52.262 41.1078 52.032 41.2778 51.862C41.4478 51.692 41.6778 51.607 41.9678 51.607C42.2278 51.607 42.4478 51.702 42.6278 51.892C42.8178 52.072 42.9128 52.292 42.9128 52.552C42.9128 52.832 42.8278 53.062 42.6578 53.242C42.4878 53.412 42.2578 53.497 41.9678 53.497ZM48.0278 62.812C47.3778 62.812 46.7878 62.647 46.2578 62.317C45.7278 61.987 45.3028 61.522 44.9828 60.922C44.6728 60.312 44.5178 59.597 44.5178 58.777C44.5178 57.997 44.6728 57.297 44.9828 56.677C45.3028 56.057 45.7378 55.567 46.2878 55.207C46.8478 54.837 47.4878 54.652 48.2078 54.652C48.6578 54.652 49.0628 54.732 49.4228 54.892C49.7928 55.042 50.1128 55.232 50.3828 55.462V54.832H51.6128V60.742C51.6128 61.122 51.7028 61.372 51.8828 61.492C52.0728 61.602 52.2778 61.657 52.4978 61.657L52.2128 62.707C51.2528 62.707 50.6728 62.317 50.4728 61.537C50.2428 61.857 49.9278 62.152 49.5278 62.422C49.1378 62.682 48.6378 62.812 48.0278 62.812ZM48.3278 61.612C48.7078 61.612 49.0678 61.522 49.4078 61.342C49.7478 61.152 50.0328 60.917 50.2628 60.637V56.452C49.9928 56.262 49.6928 56.112 49.3628 56.002C49.0428 55.882 48.7028 55.822 48.3428 55.822C47.8628 55.822 47.4378 55.947 47.0678 56.197C46.7078 56.437 46.4228 56.777 46.2128 57.217C46.0028 57.647 45.8978 58.152 45.8978 58.732C45.8978 59.292 46.0028 59.792 46.2128 60.232C46.4228 60.662 46.7128 61.002 47.0828 61.252C47.4528 61.492 47.8678 61.612 48.3278 61.612ZM57.3041 62.812C56.5641 62.812 55.9141 62.642 55.3541 62.302C54.8041 61.952 54.3791 61.472 54.0791 60.862C53.7791 60.242 53.6291 59.532 53.6291 58.732C53.6291 57.982 53.7791 57.297 54.0791 56.677C54.3891 56.057 54.8291 55.567 55.3991 55.207C55.9691 54.837 56.6391 54.652 57.4091 54.652C57.8491 54.652 58.2341 54.692 58.5641 54.772C58.9041 54.852 59.2291 54.967 59.5391 55.117L59.1341 56.257C58.8541 56.117 58.5841 56.017 58.3241 55.957C58.0741 55.887 57.7941 55.852 57.4841 55.852C56.7841 55.852 56.1941 56.107 55.7141 56.617C55.2441 57.117 55.0091 57.812 55.0091 58.702C55.0091 59.242 55.1091 59.732 55.3091 60.172C55.5091 60.612 55.7841 60.962 56.1341 61.222C56.4941 61.482 56.9141 61.612 57.3941 61.612C57.7741 61.612 58.0991 61.572 58.3691 61.492C58.6391 61.402 58.9291 61.277 59.2391 61.117L59.6591 62.257C59.3491 62.427 58.9991 62.562 58.6091 62.662C58.2291 62.762 57.7941 62.812 57.3041 62.812ZM56.8691 66.292C56.5991 66.292 56.3391 66.267 56.0891 66.217C55.8391 66.167 55.5991 66.092 55.3691 65.992L55.7291 65.047C56.0591 65.217 56.4191 65.302 56.8091 65.302C57.0691 65.302 57.2841 65.257 57.4541 65.167C57.6241 65.077 57.7091 64.937 57.7091 64.747C57.7091 64.567 57.5891 64.407 57.3491 64.267C57.1191 64.127 56.6741 64.057 56.0141 64.057L56.5391 62.632H57.5591L57.2441 63.517C57.7441 63.517 58.1491 63.627 58.4591 63.847C58.7691 64.077 58.9241 64.412 58.9241 64.852C58.9241 65.222 58.7541 65.552 58.4141 65.842C58.0741 66.142 57.5591 66.292 56.8691 66.292ZM64.0678 62.812C63.4178 62.812 62.8278 62.647 62.2978 62.317C61.7678 61.987 61.3428 61.522 61.0228 60.922C60.7128 60.312 60.5578 59.597 60.5578 58.777C60.5578 57.997 60.7128 57.297 61.0228 56.677C61.3428 56.057 61.7778 55.567 62.3278 55.207C62.8878 54.837 63.5278 54.652 64.2478 54.652C64.6978 54.652 65.1028 54.732 65.4628 54.892C65.8328 55.042 66.1528 55.232 66.4228 55.462V54.832H67.6528V60.742C67.6528 61.122 67.7428 61.372 67.9228 61.492C68.1128 61.602 68.3178 61.657 68.5378 61.657L68.2528 62.707C67.2928 62.707 66.7128 62.317 66.5128 61.537C66.2828 61.857 65.9678 62.152 65.5678 62.422C65.1778 62.682 64.6778 62.812 64.0678 62.812ZM64.3678 61.612C64.7478 61.612 65.1078 61.522 65.4478 61.342C65.7878 61.152 66.0728 60.917 66.3028 60.637V56.452C66.0328 56.262 65.7328 56.112 65.4028 56.002C65.0828 55.882 64.7428 55.822 64.3828 55.822C63.9028 55.822 63.4778 55.947 63.1078 56.197C62.7478 56.437 62.4628 56.777 62.2528 57.217C62.0428 57.647 61.9378 58.152 61.9378 58.732C61.9378 59.292 62.0428 59.792 62.2528 60.232C62.4628 60.662 62.7528 61.002 63.1228 61.252C63.4928 61.492 63.9078 61.612 64.3678 61.612ZM62.6128 53.512L62.0878 52.582C62.2678 52.382 62.4978 52.202 62.7778 52.042C63.0578 51.882 63.3478 51.802 63.6478 51.802C63.8978 51.802 64.1128 51.847 64.2928 51.937C64.4728 52.017 64.6428 52.102 64.8028 52.192C64.9728 52.272 65.1628 52.312 65.3728 52.312C65.5928 52.312 65.7878 52.267 65.9578 52.177C66.1278 52.077 66.2778 51.967 66.4078 51.847L66.9328 52.792C66.7528 52.962 66.5428 53.122 66.3028 53.272C66.0728 53.412 65.8028 53.482 65.4928 53.482C65.2328 53.482 65.0128 53.442 64.8328 53.362C64.6528 53.272 64.4778 53.187 64.3078 53.107C64.1378 53.017 63.9378 52.972 63.7078 52.972C63.4878 52.972 63.2878 53.027 63.1078 53.137C62.9278 53.247 62.7628 53.372 62.6128 53.512ZM73.4791 62.812C72.7391 62.812 72.0741 62.642 71.4841 62.302C70.8941 61.952 70.4291 61.472 70.0891 60.862C69.7591 60.242 69.5941 59.532 69.5941 58.732C69.5941 57.892 69.7641 57.167 70.1041 56.557C70.4441 55.947 70.9091 55.477 71.4991 55.147C72.0891 54.817 72.7491 54.652 73.4791 54.652C74.2091 54.652 74.8641 54.817 75.4441 55.147C76.0341 55.477 76.4991 55.947 76.8391 56.557C77.1891 57.157 77.3641 57.872 77.3641 58.702C77.3641 59.532 77.1941 60.257 76.8541 60.877C76.5141 61.487 76.0491 61.962 75.4591 62.302C74.8791 62.642 74.2191 62.812 73.4791 62.812ZM73.4791 61.612C74.2691 61.612 74.8841 61.347 75.3241 60.817C75.7641 60.277 75.9841 59.582 75.9841 58.732C75.9841 58.212 75.8741 57.737 75.6541 57.307C75.4341 56.867 75.1341 56.517 74.7541 56.257C74.3841 55.987 73.9591 55.852 73.4791 55.852C72.6891 55.852 72.0741 56.112 71.6341 56.632C71.1941 57.152 70.9741 57.842 70.9741 58.702C70.9741 59.222 71.0841 59.707 71.3041 60.157C71.5241 60.597 71.8191 60.952 72.1891 61.222C72.5691 61.482 72.9991 61.612 73.4791 61.612ZM83.8061 62.632V52.132H90.0311V53.362H85.2311V56.572H89.2361V57.742H85.2311V62.632H83.8061ZM91.3025 62.632V54.832H92.6525V62.632H91.3025ZM91.9775 53.497C91.7175 53.497 91.4925 53.402 91.3025 53.212C91.1225 53.022 91.0325 52.802 91.0325 52.552C91.0325 52.262 91.1175 52.032 91.2875 51.862C91.4575 51.692 91.6875 51.607 91.9775 51.607C92.2375 51.607 92.4575 51.702 92.6375 51.892C92.8275 52.072 92.9225 52.292 92.9225 52.552C92.9225 52.832 92.8375 53.062 92.6675 53.242C92.4975 53.412 92.2675 53.497 91.9775 53.497ZM97.4225 62.812C96.9625 62.812 96.5475 62.727 96.1775 62.557C95.8075 62.377 95.5125 62.092 95.2925 61.702C95.0825 61.312 94.9775 60.807 94.9775 60.187V51.532H96.3275V60.052C96.3275 60.592 96.4375 60.992 96.6575 61.252C96.8875 61.512 97.2025 61.642 97.6025 61.642C97.7925 61.642 97.9775 61.622 98.1575 61.582C98.3475 61.532 98.5075 61.477 98.6375 61.417L98.9675 62.512C98.7875 62.592 98.5625 62.662 98.2925 62.722C98.0325 62.782 97.7425 62.812 97.4225 62.812ZM103.003 62.812C102.353 62.812 101.763 62.647 101.233 62.317C100.703 61.987 100.278 61.522 99.9584 60.922C99.6484 60.312 99.4934 59.597 99.4934 58.777C99.4934 57.997 99.6484 57.297 99.9584 56.677C100.278 56.057 100.713 55.567 101.263 55.207C101.823 54.837 102.463 54.652 103.183 54.652C103.633 54.652 104.038 54.732 104.398 54.892C104.768 55.042 105.088 55.232 105.358 55.462V54.832H106.588V60.742C106.588 61.122 106.678 61.372 106.858 61.492C107.048 61.602 107.253 61.657 107.473 61.657L107.188 62.707C106.228 62.707 105.648 62.317 105.448 61.537C105.218 61.857 104.903 62.152 104.503 62.422C104.113 62.682 103.613 62.812 103.003 62.812ZM103.303 61.612C103.683 61.612 104.043 61.522 104.383 61.342C104.723 61.152 105.008 60.917 105.238 60.637V56.452C104.968 56.262 104.668 56.112 104.338 56.002C104.018 55.882 103.678 55.822 103.318 55.822C102.838 55.822 102.413 55.947 102.043 56.197C101.683 56.437 101.398 56.777 101.188 57.217C100.978 57.647 100.873 58.152 100.873 58.732C100.873 59.292 100.978 59.792 101.188 60.232C101.398 60.662 101.688 61.002 102.058 61.252C102.428 61.492 102.843 61.612 103.303 61.612ZM109.276 62.632V54.832H110.581V56.137C110.861 55.717 111.216 55.367 111.646 55.087C112.086 54.797 112.606 54.652 113.206 54.652C114.086 54.652 114.741 54.917 115.171 55.447C115.611 55.977 115.831 56.677 115.831 57.547V62.632H114.481V57.697C114.481 57.137 114.346 56.687 114.076 56.347C113.816 56.007 113.451 55.837 112.981 55.837C112.521 55.837 112.086 56.002 111.676 56.332C111.266 56.652 110.916 57.032 110.626 57.472V62.632H109.276ZM120.883 62.812C120.133 62.812 119.538 62.567 119.098 62.077C118.668 61.577 118.453 60.867 118.453 59.947V56.287H117.103V55.117H118.483L118.768 52.657H119.803V55.117H121.963V56.287H119.803V60.052C119.803 60.632 119.923 61.037 120.163 61.267C120.413 61.497 120.708 61.612 121.048 61.612C121.298 61.612 121.533 61.572 121.753 61.492C121.983 61.412 122.193 61.317 122.383 61.207L122.758 62.287C122.558 62.407 122.288 62.522 121.948 62.632C121.608 62.752 121.253 62.812 120.883 62.812ZM124.115 62.632V54.832H125.42V56.527C125.55 56.197 125.725 55.892 125.945 55.612C126.165 55.322 126.44 55.092 126.77 54.922C127.1 54.742 127.485 54.652 127.925 54.652C128.075 54.652 128.225 54.662 128.375 54.682C128.525 54.692 128.65 54.712 128.75 54.742L128.345 56.137C128.155 56.057 127.93 56.017 127.67 56.017C127.3 56.017 126.945 56.122 126.605 56.332C126.275 56.542 126 56.867 125.78 57.307C125.57 57.747 125.465 58.307 125.465 58.987V62.632H124.115ZM132.937 62.812C132.197 62.812 131.532 62.642 130.942 62.302C130.352 61.952 129.887 61.472 129.547 60.862C129.217 60.242 129.052 59.532 129.052 58.732C129.052 57.892 129.222 57.167 129.562 56.557C129.902 55.947 130.367 55.477 130.957 55.147C131.547 54.817 132.207 54.652 132.937 54.652C133.667 54.652 134.322 54.817 134.902 55.147C135.492 55.477 135.957 55.947 136.297 56.557C136.647 57.157 136.822 57.872 136.822 58.702C136.822 59.532 136.652 60.257 136.312 60.877C135.972 61.487 135.507 61.962 134.917 62.302C134.337 62.642 133.677 62.812 132.937 62.812ZM132.937 61.612C133.727 61.612 134.342 61.347 134.782 60.817C135.222 60.277 135.442 59.582 135.442 58.732C135.442 58.212 135.332 57.737 135.112 57.307C134.892 56.867 134.592 56.517 134.212 56.257C133.842 55.987 133.417 55.852 132.937 55.852C132.147 55.852 131.532 56.112 131.092 56.632C130.652 57.152 130.432 57.842 130.432 58.702C130.432 59.222 130.542 59.707 130.762 60.157C130.982 60.597 131.277 60.952 131.647 61.222C132.027 61.482 132.457 61.612 132.937 61.612ZM131.662 54.007L131.197 53.092L134.032 51.217L134.662 52.477L131.662 54.007ZM138.609 65.932V56.827C138.609 56.487 138.524 56.247 138.354 56.107C138.194 55.957 137.984 55.882 137.724 55.882L138.009 54.832C138.929 54.832 139.504 55.197 139.734 55.927C139.834 55.777 139.994 55.602 140.214 55.402C140.444 55.202 140.724 55.027 141.054 54.877C141.394 54.727 141.779 54.652 142.209 54.652C142.809 54.652 143.369 54.812 143.889 55.132C144.419 55.442 144.844 55.897 145.164 56.497C145.484 57.087 145.644 57.807 145.644 58.657C145.644 59.487 145.484 60.217 145.164 60.847C144.844 61.467 144.424 61.952 143.904 62.302C143.394 62.642 142.839 62.812 142.239 62.812C141.779 62.812 141.349 62.722 140.949 62.542C140.549 62.352 140.219 62.137 139.959 61.897V65.932H138.609ZM141.969 61.612C142.649 61.612 143.199 61.347 143.619 60.817C144.049 60.277 144.264 59.572 144.264 58.702C144.264 58.102 144.154 57.587 143.934 57.157C143.724 56.727 143.439 56.397 143.079 56.167C142.729 55.937 142.339 55.822 141.909 55.822C141.479 55.822 141.089 55.932 140.739 56.152C140.399 56.362 140.139 56.592 139.959 56.842V60.682C140.219 60.952 140.519 61.177 140.859 61.357C141.199 61.527 141.569 61.612 141.969 61.612ZM147.523 62.632V54.832H148.873V62.632H147.523ZM148.198 53.497C147.938 53.497 147.713 53.402 147.523 53.212C147.343 53.022 147.253 52.802 147.253 52.552C147.253 52.262 147.338 52.032 147.508 51.862C147.678 51.692 147.908 51.607 148.198 51.607C148.458 51.607 148.678 51.702 148.858 51.892C149.048 52.072 149.143 52.292 149.143 52.552C149.143 52.832 149.058 53.062 148.888 53.242C148.718 53.412 148.488 53.497 148.198 53.497ZM154.423 62.812C153.683 62.812 153.033 62.642 152.473 62.302C151.923 61.952 151.498 61.472 151.198 60.862C150.898 60.242 150.748 59.532 150.748 58.732C150.748 57.982 150.898 57.297 151.198 56.677C151.508 56.057 151.948 55.567 152.518 55.207C153.088 54.837 153.758 54.652 154.528 54.652C154.968 54.652 155.353 54.692 155.683 54.772C156.023 54.852 156.348 54.967 156.658 55.117L156.253 56.257C155.973 56.117 155.703 56.017 155.443 55.957C155.193 55.887 154.913 55.852 154.603 55.852C153.903 55.852 153.313 56.107 152.833 56.617C152.363 57.117 152.128 57.812 152.128 58.702C152.128 59.242 152.228 59.732 152.428 60.172C152.628 60.612 152.903 60.962 153.253 61.222C153.613 61.482 154.033 61.612 154.513 61.612C154.893 61.612 155.218 61.572 155.488 61.492C155.758 61.402 156.048 61.277 156.358 61.117L156.778 62.257C156.468 62.427 156.118 62.562 155.728 62.662C155.348 62.762 154.913 62.812 154.423 62.812ZM161.187 62.812C160.537 62.812 159.947 62.647 159.417 62.317C158.887 61.987 158.462 61.522 158.142 60.922C157.832 60.312 157.677 59.597 157.677 58.777C157.677 57.997 157.832 57.297 158.142 56.677C158.462 56.057 158.897 55.567 159.447 55.207C160.007 54.837 160.647 54.652 161.367 54.652C161.817 54.652 162.222 54.732 162.582 54.892C162.952 55.042 163.272 55.232 163.542 55.462V54.832H164.772V60.742C164.772 61.122 164.862 61.372 165.042 61.492C165.232 61.602 165.437 61.657 165.657 61.657L165.372 62.707C164.412 62.707 163.832 62.317 163.632 61.537C163.402 61.857 163.087 62.152 162.687 62.422C162.297 62.682 161.797 62.812 161.187 62.812ZM161.487 61.612C161.867 61.612 162.227 61.522 162.567 61.342C162.907 61.152 163.192 60.917 163.422 60.637V56.452C163.152 56.262 162.852 56.112 162.522 56.002C162.202 55.882 161.862 55.822 161.502 55.822C161.022 55.822 160.597 55.947 160.227 56.197C159.867 56.437 159.582 56.777 159.372 57.217C159.162 57.647 159.057 58.152 159.057 58.732C159.057 59.292 159.162 59.792 159.372 60.232C159.582 60.662 159.872 61.002 160.242 61.252C160.612 61.492 161.027 61.612 161.487 61.612Z" fill="#325402"/>
</svg>
