<svg width="150" height="155" viewBox="0 0 150 155" fill="none" xmlns="http://www.w3.org/2000/svg">
<path d="M117.011 0.76942C113.459 1.95791 108.855 6.29015 109.513 7.78535C110.039 8.97384 111.924 8.4371 114.555 6.36683C116.002 5.25501 118.107 3.91317 119.335 3.33809C121.571 2.26462 126.438 1.38283 129.2 1.57453C131.788 1.72788 131.174 0.961112 128.367 0.462712C124.465 -0.265718 119.642 -0.112364 117.011 0.76942Z" fill="#75BAA8"/>
<path d="M91.3151 7.86199C85.2202 11.6575 86.711 23.3122 95.0861 37.9191C96.4454 40.2194 97.5416 42.2129 97.5416 42.2896C97.5416 42.4046 96.8839 42.2896 96.1385 42.0979C94.1653 41.5995 86.6672 41.6762 83.8609 42.1746C80.8353 42.7497 75.8804 44.7432 72.1533 46.9285C68.2508 49.1521 62.2435 54.7112 59.7003 58.3533C55.7539 64.0273 52.4652 73.6885 52.0706 80.6661C51.8075 85.8417 52.246 88.4104 53.9561 91.5157C55.9293 95.0812 59.9634 96.308 64.1728 94.6595L66.0583 93.8927L67.7246 95.1962C68.6454 95.9246 70.0924 96.7297 70.9694 96.9981C71.8463 97.2665 72.5041 97.6115 72.4164 97.7265C72.0656 98.2632 71.2763 99.9118 71.0571 100.487C70.9255 100.909 70.3993 101.177 69.7855 101.177C67.6807 101.177 66.5407 103.592 67.9 105.202C68.4262 105.854 68.4262 106.046 67.6807 106.889C66.4091 108.308 66.6284 109.535 68.5138 111.145C70.0924 112.563 70.1362 112.64 69.4347 113.407C67.9438 115.017 69.6978 116.819 73.6003 117.701C76.6258 118.352 86.0972 117.892 92.2798 116.781C95.0423 116.282 97.2347 115.707 97.1032 115.515C96.8401 115.132 94.5161 115.132 83.5101 115.554C75.5735 115.822 73.4249 115.592 73.4249 114.404C73.4249 113.522 75.3104 113.062 78.9498 113.062C83.6416 113.062 83.0716 112.257 77.9413 111.643C73.5126 111.145 70.794 110.301 70.794 109.496C70.794 108.768 74.8719 108.308 77.7659 108.653C79.3445 108.845 79.9583 108.768 80.3968 108.308C81.23 107.426 80.7038 107.043 78.1605 106.813C75.2665 106.583 72.2848 105.547 71.8902 104.704C71.364 103.477 72.8549 103.094 76.8012 103.362C79.9145 103.554 80.4407 103.516 80.4407 103.017C80.4407 102.634 79.8706 102.327 78.8183 102.135C77.8975 101.982 76.4505 101.637 75.6173 101.292C74.1703 100.755 74.1265 100.717 74.9157 100.18C75.4858 99.8351 76.9328 99.6434 79.3006 99.6434C82.5454 99.6434 93.4199 98.8383 97.7609 98.2632C98.7256 98.1482 101.795 97.5348 104.557 96.8831C111.792 95.2345 117.844 94.6211 122.316 95.0812C126.964 95.5412 128.762 96.078 133.103 98.5316C136.523 100.449 136.742 100.525 137.839 99.9885C138.452 99.6818 139.154 98.8767 139.417 98.1866C139.768 97.1514 140.031 96.9598 141.215 96.9598C143.013 96.9598 143.758 96.1547 143.451 94.4678C143.32 93.7393 143.407 93.0493 143.627 92.9342C144.328 92.5509 144.065 89.7138 143.188 88.1803C142.267 86.6468 139.899 84.6149 137.444 83.273C135.383 82.1612 130.297 81.0111 125.035 80.436L120.738 79.976L123.149 78.0207C126.789 75.0687 127.929 71.7333 126.92 67.2477C126.613 65.9826 126.263 64.3724 126.175 63.6823L125.956 62.4554H128.981C134.111 62.4554 138.233 61.0753 142.618 57.8932C146.608 54.9795 149.195 51.0307 147.441 50.4556C146.521 50.1873 145.424 50.8773 141.916 53.9444C137.751 57.5865 135.251 58.7367 131.086 58.9283C125.78 59.1967 119.159 56.7431 112.187 51.9891C105.61 47.4652 100.655 40.9094 96.0069 30.4431C92.236 22.0854 90.6136 14.6862 92.0167 12.3092C93.2006 10.3156 95.8754 9.66388 97.8924 10.929C100.041 12.2325 104.514 19.0951 106.268 23.734C107.539 27.1077 108.328 30.0598 109.863 37.4973C110.565 40.9478 111.354 44.0532 111.573 44.4365C112.231 45.51 114.467 46.7752 116.09 47.0052C118.457 47.3119 123.105 44.7816 122.272 43.5931C122.141 43.4397 120.387 43.2864 118.326 43.2864C116.309 43.2864 114.643 43.1714 114.643 43.018C114.643 41.1395 111.266 25.7275 110.258 22.9672C107.758 16.3347 103.067 9.62554 99.6025 7.82365C96.8839 6.48181 93.5514 6.48181 91.3151 7.86199ZM91.8852 44.4365C94.9984 44.9733 97.2347 45.9701 100.304 48.1553C103.593 50.5706 104.777 52.1042 106.311 55.8996C107.671 59.3117 109.205 61.3436 111.31 62.4938C112.362 63.1072 113.239 63.2222 115.388 63.1455C117.712 63.0305 118.194 63.1072 118.414 63.6823C118.764 64.6407 120.738 65.9059 121.921 65.9059C122.798 65.9059 122.974 66.2126 123.456 68.0912C124.903 74.2636 120.211 78.3658 109.293 80.436C107.013 80.8577 102.672 81.4712 99.6902 81.8162C93.1129 82.5446 92.8498 82.6213 92.236 83.6181C91.7975 84.3082 91.8852 84.5382 92.5429 84.9983C93.7707 85.8034 100.743 85.3816 105.917 84.1932C114.292 82.2379 121.045 82.1229 129.639 83.7331C135.471 84.8066 141.39 88.2187 141.39 90.4806C141.39 91.209 141.215 91.2857 139.856 91.094C137.839 90.7873 137.619 91.2474 139.198 92.5509C139.943 93.1643 140.513 93.7777 140.513 93.9694C140.513 94.5445 139.022 94.2761 137.488 93.471C136.698 93.0493 135.909 92.7809 135.822 92.8959C135.69 93.0109 135.997 93.816 136.479 94.6595C137.225 96.0013 137.356 97.7265 136.698 97.7265C136.567 97.7265 135.69 97.1131 134.769 96.3847C130.604 93.1259 125.517 91.8224 117.712 92.0908C112.845 92.2442 111.179 92.5125 102.584 94.4294C93.8145 96.423 92.3675 96.653 86.9303 96.8447C83.247 96.9981 80.8792 96.9214 80.8792 96.6914C80.8792 96.4997 81.7561 95.2345 82.8524 93.8927C86.6672 89.1388 86.7987 88.602 86.7549 77.1773C86.6672 63.7589 85.8341 59.5418 83.5978 60.7686C82.94 61.152 82.8524 61.842 82.8524 65.7525C82.8524 68.2828 83.0277 73.2285 83.247 76.8322C83.6416 84.3465 83.2908 87.2219 81.4492 90.4039C80.7476 91.5541 79.6514 92.8576 78.9937 93.3176C76.7574 94.7361 72.0656 94.1227 69.3908 92.0908C68.6892 91.5541 68.7331 91.4007 69.917 90.0972C71.934 87.912 73.0741 84.6532 73.2933 80.2827C73.4687 76.9089 73.381 76.2955 72.5918 75.1837C69.2593 70.5831 63.1643 79.6309 63.9536 87.9886C64.1728 90.3656 64.0851 90.8257 63.3397 91.4007C62.3312 92.2058 60.6211 92.2825 59.0864 91.5541C55.447 89.8672 54.9208 80.8194 57.8586 70.6598C58.9548 66.941 62.3312 60.2318 64.6113 57.3181C69.6101 50.9924 78.3798 45.4333 84.8255 44.4749C88.2019 44.0148 89.2104 44.0148 91.8852 44.4365ZM113.327 56.8964C115.344 58.0466 117.274 59.005 117.58 59.005C117.887 59.005 118.151 59.1584 118.151 59.3884C118.151 59.8101 114.599 59.8868 113.02 59.5418C112.012 59.3117 110.696 57.7399 109.863 55.823C109.6 55.2479 109.468 54.7878 109.512 54.7878C109.6 54.7878 111.31 55.7463 113.327 56.8964ZM70.2678 81.0494C70.0486 84.1548 67.7246 89.2155 66.8038 88.6787C65.7952 88.142 67.2861 80.7811 68.8646 78.6341C69.9609 77.1389 70.487 78.0591 70.2678 81.0494Z" fill="#75BAA8"/>
<path d="M97.6295 62.0721C96.0071 63.414 93.7708 63.6057 92.0607 62.6089C90.7014 61.8421 90.6137 62.5706 91.9292 63.3757C93.5954 64.4109 96.2264 64.1425 98.1119 62.8006C99.6027 61.7271 100.173 60.9219 99.4274 60.9219C99.2081 60.9219 98.4188 61.4587 97.6295 62.0721Z" fill="#75BAA8"/>
<path d="M132.84 17.4846C129.99 20.2833 127.666 21.2035 124.246 20.9351C122.273 20.7817 121.571 20.8967 121.133 21.3185C119.554 22.967 125.342 24.0022 129.245 22.8137C132.972 21.6252 136.567 18.4431 136.567 16.2578C136.567 14.6859 135.252 15.1459 132.84 17.4846Z" fill="#75BAA8"/>
<path d="M137.751 22.4304C137.4 22.7755 138.233 24.1173 138.759 24.1173C139.022 24.1173 139.198 23.8873 139.198 23.5806C139.198 22.9672 138.145 22.1237 137.751 22.4304Z" fill="#75BAA8"/>
<path d="M131.743 26.1491C131.743 26.4558 132.05 26.9543 132.445 27.2226C133.059 27.6444 133.103 27.606 132.971 26.8009C132.839 25.8041 131.743 25.229 131.743 26.1491Z" fill="#75BAA8"/>
<path d="M124.29 28.7179C124.29 29.1396 124.509 29.4846 124.728 29.4846C124.991 29.4846 125.167 29.1396 125.167 28.7179C125.167 28.2962 124.991 27.9511 124.728 27.9511C124.509 27.9511 124.29 28.2962 124.29 28.7179Z" fill="#75BAA8"/>
<path d="M129.901 45.8169C128.586 46.852 127.884 47.1203 126.481 47.1203C123.762 47.1203 121.482 48.1171 119.948 49.9956C119.202 50.9157 118.588 51.7591 118.588 51.8741C118.588 52.4492 124.596 52.0658 126.306 51.3758C129.2 50.2256 132.138 46.8136 131.655 45.0501C131.568 44.6284 131.129 44.8201 129.901 45.8169ZM130.033 47.3887C128.63 49.6506 125.253 51.3374 122.096 51.2991H120.123L121.57 50.1873C122.622 49.3439 123.412 49.0372 124.639 49.0372C125.736 49.0372 126.963 48.6538 128.235 47.9254C130.603 46.5453 130.559 46.5836 130.033 47.3887Z" fill="#75BAA8"/>
<path d="M5.08 15.048L2.608 21H1.384L8.608 3.72H9.28L16.528 21H15.232L12.76 15.048H5.08ZM8.872 5.64C8.856 5.656 8.824 5.752 8.776 5.928C8.552 6.616 8.336 7.2 8.128 7.68L5.488 14.064H12.352L9.712 7.704C9.152 6.488 8.872 5.8 8.872 5.64ZM24.7861 20.184C26.8341 20.184 28.4741 19.632 29.7061 18.528C30.9541 17.424 31.5781 15.76 31.5781 13.536C31.5781 11.312 30.8741 9.544 29.4661 8.232C28.0741 6.92 26.3541 6.264 24.3061 6.264C22.8501 6.264 21.7301 6.296 20.9461 6.36V20.016C21.9061 20.128 23.1861 20.184 24.7861 20.184ZM24.3061 5.28C26.7061 5.28 28.7061 6.024 30.3061 7.512C31.9221 8.984 32.7301 10.992 32.7301 13.536C32.7301 16.08 31.9861 17.992 30.4981 19.272C29.0261 20.552 27.1221 21.192 24.7861 21.192C23.1701 21.192 21.5061 21.112 19.7941 20.952V5.424C21.0741 5.328 22.5781 5.28 24.3061 5.28ZM44.4243 21.24C42.2003 21.24 40.3363 20.464 38.8323 18.912C37.3283 17.36 36.5763 15.464 36.5763 13.224C36.5763 10.968 37.3283 9.064 38.8323 7.512C40.3363 5.96 42.2003 5.184 44.4243 5.184C46.6483 5.184 48.5123 5.96 50.0163 7.512C51.5203 9.064 52.2723 10.968 52.2723 13.224C52.2723 15.464 51.5203 17.36 50.0163 18.912C48.5123 20.464 46.6483 21.24 44.4243 21.24ZM44.4243 6.168C42.5043 6.168 40.9043 6.848 39.6243 8.208C38.3603 9.568 37.7283 11.24 37.7283 13.224C37.7283 15.192 38.3603 16.856 39.6243 18.216C40.9043 19.56 42.5043 20.232 44.4243 20.232C46.3602 20.232 47.9603 19.56 49.2243 18.216C50.4883 16.856 51.1203 15.192 51.1203 13.224C51.1203 11.24 50.4883 9.568 49.2243 8.208C47.9603 6.848 46.3602 6.168 44.4243 6.168ZM59.3281 6.408H54.0481V5.424H65.6881V6.408H60.4081V21H59.3281V6.408ZM68.9425 21V5.424H76.2145V6.384H70.0465V12.048H75.6145V12.984H70.0465V19.992H76.4545V21H68.9425ZM5.08 41.048L2.608 47H1.384L8.608 29.72H9.28L16.528 47H15.232L12.76 41.048H5.08ZM8.872 31.64C8.856 31.656 8.824 31.752 8.776 31.928C8.552 32.616 8.336 33.2 8.128 33.68L5.488 40.064H12.352L9.712 33.704C9.152 32.488 8.872 31.8 8.872 31.64ZM26.4008 47.24C24.1768 47.24 22.3128 46.464 20.8088 44.912C19.3048 43.36 18.5528 41.464 18.5528 39.224C18.5528 36.968 19.3048 35.064 20.8088 33.512C22.3128 31.96 24.1768 31.184 26.4008 31.184C28.6248 31.184 30.4808 31.96 31.9688 33.512C33.4728 35.064 34.2248 36.96 34.2248 39.2C34.2248 40.528 33.9448 41.76 33.3848 42.896C32.8248 44.032 32.0568 44.968 31.0808 45.704C34.8888 47.96 37.8168 49.32 39.8648 49.784C40.9208 50.04 41.9368 50.168 42.9128 50.168C43.8888 50.168 44.9368 50.056 46.0568 49.832C47.1928 49.608 48.0008 49.376 48.4808 49.136L48.7448 49.76C48.1368 50.048 47.2488 50.328 46.0808 50.6C44.9288 50.888 43.8408 51.032 42.8168 51.032C41.8088 51.032 40.7288 50.896 39.5768 50.624C38.4248 50.368 37.2248 49.952 35.9768 49.376C34.7288 48.8 33.7608 48.328 33.0728 47.96C32.4008 47.608 31.4248 47.056 30.1448 46.304C28.9928 46.928 27.7448 47.24 26.4008 47.24ZM26.3768 32.168C24.4568 32.168 22.8648 32.848 21.6008 34.208C20.3368 35.568 19.7048 37.24 19.7048 39.224C19.7048 41.192 20.3368 42.856 21.6008 44.216C22.8648 45.56 24.4648 46.232 26.4008 46.232C27.4088 46.232 28.3208 46.04 29.1368 45.656C27.3288 44.44 25.9208 43.832 24.9128 43.832C24.3368 43.832 23.8088 43.944 23.3288 44.168L22.9688 43.496C23.5128 43.144 24.1208 42.968 24.7928 42.968C25.4648 42.968 26.1208 43.088 26.7608 43.328C27.4008 43.568 27.9368 43.816 28.3688 44.072C28.8168 44.328 29.3928 44.688 30.0968 45.152C31.0248 44.528 31.7528 43.696 32.2808 42.656C32.8248 41.6 33.0968 40.448 33.0968 39.2C33.0968 37.232 32.4568 35.568 31.1768 34.208C29.9128 32.848 28.3128 32.168 26.3768 32.168ZM50.1243 45.392C49.0683 46.624 47.4603 47.24 45.3003 47.24C43.1403 47.24 41.5323 46.624 40.4763 45.392C39.4203 44.16 38.8923 42.456 38.8923 40.28V31.424H39.9963V40.28C39.9963 44.264 41.7643 46.256 45.3003 46.256C48.8363 46.256 50.6043 44.264 50.6043 40.28V31.424H51.7083V40.28C51.7083 42.456 51.1803 44.16 50.1243 45.392ZM57.3175 47V31.424H58.4215V47H57.3175Z" fill="#75BAA8"/>
<path d="M1.701 132.145C1.107 131.503 0.81 130.714 0.81 129.778C0.81 128.842 1.107 128.056 1.701 127.42C2.301 126.778 3.057 126.457 3.969 126.457C4.881 126.457 5.637 126.778 6.237 127.42C6.837 128.056 7.137 128.842 7.137 129.778C7.137 130.33 7.023 130.843 6.795 131.317C6.573 131.785 6.264 132.172 5.868 132.478C7.098 133.222 8.046 133.708 8.712 133.936C9.504 134.206 10.218 134.341 10.854 134.341C11.22 134.341 11.637 134.293 12.105 134.197C12.573 134.101 12.909 134.002 13.113 133.9L13.221 134.152C12.987 134.272 12.627 134.389 12.141 134.503C11.661 134.617 11.232 134.674 10.854 134.674C10.476 134.674 10.074 134.626 9.648 134.53C9.228 134.44 8.865 134.344 8.559 134.242C8.259 134.14 7.884 133.978 7.434 133.756C6.984 133.534 6.66 133.366 6.462 133.252C6.27 133.144 5.955 132.964 5.517 132.712C5.043 132.976 4.527 133.108 3.969 133.108C3.057 133.108 2.301 132.787 1.701 132.145ZM2.025 127.699C1.527 128.257 1.278 128.95 1.278 129.778C1.278 130.606 1.527 131.302 2.025 131.866C2.529 132.43 3.177 132.712 3.969 132.712C4.401 132.712 4.791 132.625 5.139 132.451C4.389 131.941 3.798 131.686 3.366 131.686C3.096 131.686 2.877 131.734 2.709 131.83L2.565 131.569C2.787 131.419 3.06 131.344 3.384 131.344C3.708 131.344 4.032 131.422 4.356 131.578C4.686 131.734 5.064 131.956 5.49 132.244C5.862 131.98 6.15 131.632 6.354 131.2C6.564 130.768 6.669 130.294 6.669 129.778C6.669 128.95 6.417 128.257 5.913 127.699C5.415 127.135 4.767 126.853 3.969 126.853C3.171 126.853 2.523 127.135 2.025 127.699ZM13.1833 132.397C12.7873 132.859 12.1843 133.09 11.3743 133.09C10.5643 133.09 9.96131 132.859 9.56531 132.397C9.16931 131.935 8.97131 131.296 8.97131 130.48V127.159H9.38531V130.48C9.38531 131.974 10.0483 132.721 11.3743 132.721C12.7003 132.721 13.3633 131.974 13.3633 130.48V127.159H13.7773V130.48C13.7773 131.296 13.5793 131.935 13.1833 132.397ZM15.8808 133V127.159H18.6078V127.519H16.2948V129.643H18.3828V129.994H16.2948V132.622H18.6978V133H15.8808ZM23.0634 132.694H22.8204L21.1194 128.563C21.0474 128.401 20.9754 128.212 20.9034 127.996C20.9034 128.002 20.8974 128.035 20.8854 128.095C20.8794 128.155 20.8704 128.236 20.8584 128.338C20.8464 128.434 20.8344 128.515 20.8224 128.581L20.1474 133H19.7424L20.6964 127.123H20.9394L22.7574 131.434C22.9014 131.794 22.9734 131.983 22.9734 132.001C23.0154 131.875 23.0964 131.689 23.2164 131.443L25.2414 127.123H25.4844L26.3754 133H25.9434L25.3044 128.563C25.2624 128.269 25.2414 128.074 25.2414 127.978L24.9804 128.572L23.0634 132.694ZM33.073 131.776L35.026 127.159H35.458L32.947 133.036H32.704L30.193 127.159H30.643L32.848 132.352C32.878 132.262 32.953 132.07 33.073 131.776ZM36.6493 133V127.159H39.3763V127.519H37.0633V129.643H39.1513V129.994H37.0633V132.622H39.4663V133H36.6493ZM38.0443 126.232L37.1083 126.691L36.9913 126.529L38.0443 125.728L39.0973 126.529L38.9803 126.691L38.0443 126.232ZM44.3661 133V127.186C44.8821 127.144 45.3201 127.123 45.6801 127.123C46.2321 127.123 46.6881 127.267 47.0481 127.555C47.4081 127.837 47.5881 128.242 47.5881 128.77C47.5881 129.124 47.4861 129.451 47.2821 129.751C47.0781 130.051 46.8471 130.294 46.5891 130.48C47.3031 131.428 47.7441 131.995 47.9121 132.181C48.2541 132.535 48.6261 132.736 49.0281 132.784L49.0191 133.063C48.6831 133.057 48.4101 133.009 48.2001 132.919C47.9901 132.823 47.7801 132.664 47.5701 132.442C47.3661 132.22 46.9131 131.623 46.2111 130.651C45.7251 130.651 45.2481 130.636 44.7801 130.606V133H44.3661ZM45.9861 130.309C46.2201 130.309 46.4721 130.153 46.7421 129.841C47.0121 129.529 47.1471 129.166 47.1471 128.752C47.1471 128.338 47.0061 128.023 46.7241 127.807C46.4421 127.591 46.0761 127.483 45.6261 127.483C45.3861 127.483 45.1041 127.495 44.7801 127.519V130.264C45.2121 130.294 45.6141 130.309 45.9861 130.309ZM50.3494 130.975L49.5124 133H49.0894L51.5374 127.123H51.7804L54.2464 133H53.7874L52.9414 130.975H50.3494ZM51.6364 127.789C51.5464 128.059 51.4654 128.284 51.3934 128.464L50.4934 130.624H52.7974L51.9064 128.473C51.7684 128.137 51.6784 127.909 51.6364 127.789ZM57.8461 134.359C57.9661 134.509 58.1041 134.584 58.2601 134.584C58.4221 134.584 58.5421 134.542 58.6201 134.458C58.6981 134.374 58.7371 134.263 58.7371 134.125C58.7371 133.987 58.6951 133.876 58.6111 133.792C58.5331 133.708 58.4431 133.666 58.3411 133.666C58.2391 133.666 58.1491 133.681 58.0711 133.711L57.8101 133.603L58.0081 133.09C57.1681 133.072 56.4511 132.778 55.8571 132.208C55.2631 131.632 54.9661 130.921 54.9661 130.075C54.9661 129.223 55.2301 128.509 55.7581 127.933C56.2921 127.357 56.9791 127.069 57.8191 127.069C58.4971 127.069 59.1601 127.174 59.8081 127.384L59.7001 127.726C59.0761 127.534 58.4311 127.438 57.7651 127.438C57.0991 127.438 56.5381 127.693 56.0821 128.203C55.6321 128.707 55.4071 129.328 55.4071 130.066C55.4071 130.798 55.6681 131.422 56.1901 131.938C56.7181 132.454 57.3271 132.712 58.0171 132.712C58.7071 132.712 59.2801 132.616 59.7361 132.424L59.8711 132.712C59.5171 132.916 59.0191 133.039 58.3771 133.081L58.2691 133.387C58.3111 133.381 58.3501 133.378 58.3861 133.378C58.5781 133.378 58.7461 133.444 58.8901 133.576C59.0341 133.714 59.1061 133.894 59.1061 134.116C59.1061 134.338 59.0281 134.524 58.8721 134.674C58.7221 134.824 58.5211 134.899 58.2691 134.899C58.0171 134.899 57.8101 134.785 57.6481 134.557L57.8461 134.359ZM61.6346 130.975L60.7976 133H60.3746L62.8226 127.123H63.0656L65.5316 133H65.0726L64.2266 130.975H61.6346ZM62.9216 127.789C62.8316 128.059 62.7506 128.284 62.6786 128.464L61.7786 130.624H64.0826L63.1916 128.473C63.0536 128.137 62.9636 127.909 62.9216 127.789ZM66.188 132.523H66.665V132.964L66.287 133.657H66.08L66.188 133.108V132.523ZM71.2607 133V127.123H71.4587L75.2927 131.533C75.4307 131.689 75.5567 131.845 75.6707 132.001C75.7907 132.151 75.8537 132.229 75.8597 132.235C75.8477 132.091 75.8417 131.809 75.8417 131.389V127.159H76.2557V133.036H76.0577L72.1517 128.554L71.6567 127.951C71.6687 128.071 71.6747 128.353 71.6747 128.797V133H71.2607ZM78.703 130.975L77.866 133H77.443L79.891 127.123H80.134L82.6 133H82.141L81.295 130.975H78.703ZM79.99 127.789C79.9 128.059 79.819 128.284 79.747 128.464L78.847 130.624H81.151L80.26 128.473C80.122 128.137 80.032 127.909 79.99 127.789ZM79.261 126.169C79.033 126.169 78.805 126.352 78.577 126.718L78.343 126.565C78.427 126.433 78.499 126.325 78.559 126.241C78.625 126.157 78.724 126.067 78.856 125.971C78.994 125.875 79.111 125.827 79.207 125.827C79.309 125.827 79.387 125.833 79.441 125.845C79.495 125.851 79.552 125.869 79.612 125.899C79.678 125.923 79.723 125.941 79.747 125.953C79.777 125.965 79.831 125.992 79.909 126.034C79.993 126.076 80.041 126.1 80.053 126.106C80.341 126.268 80.548 126.349 80.674 126.349C80.902 126.349 81.13 126.166 81.358 125.8L81.592 125.953C81.508 126.085 81.433 126.193 81.367 126.277C81.307 126.361 81.208 126.451 81.07 126.547C80.938 126.643 80.821 126.691 80.719 126.691C80.623 126.691 80.548 126.688 80.494 126.682C80.44 126.67 80.38 126.652 80.314 126.628C80.254 126.598 80.209 126.577 80.179 126.565C80.155 126.553 80.101 126.526 80.017 126.484C79.939 126.442 79.894 126.418 79.882 126.412C79.594 126.25 79.387 126.169 79.261 126.169ZM86.2626 133.09C85.4286 133.09 84.7296 132.799 84.1656 132.217C83.6016 131.635 83.3196 130.924 83.3196 130.084C83.3196 129.238 83.6016 128.524 84.1656 127.942C84.7296 127.36 85.4286 127.069 86.2626 127.069C87.0966 127.069 87.7956 127.36 88.3596 127.942C88.9236 128.524 89.2056 129.238 89.2056 130.084C89.2056 130.924 88.9236 131.635 88.3596 132.217C87.7956 132.799 87.0966 133.09 86.2626 133.09ZM86.2626 127.438C85.5426 127.438 84.9426 127.693 84.4626 128.203C83.9886 128.713 83.7516 129.34 83.7516 130.084C83.7516 130.822 83.9886 131.446 84.4626 131.956C84.9426 132.46 85.5426 132.712 86.2626 132.712C86.9886 132.712 87.5886 132.46 88.0626 131.956C88.5366 131.446 88.7736 130.822 88.7736 130.084C88.7736 129.34 88.5366 128.713 88.0626 128.203C87.5886 127.693 86.9886 127.438 86.2626 127.438ZM96.1609 131.776L98.1139 127.159H98.5459L96.0349 133.036H95.7919L93.2809 127.159H93.7309L95.9359 132.352C95.9659 132.262 96.0409 132.07 96.1609 131.776ZM99.7372 133V127.159H102.464V127.519H100.151V129.643H102.239V129.994H100.151V132.622H102.554V133H99.7372ZM101.132 126.232L100.196 126.691L100.079 126.529L101.132 125.728L102.185 126.529L102.068 126.691L101.132 126.232ZM111.999 132.712C111.549 132.964 110.922 133.09 110.118 133.09C109.32 133.09 108.615 132.802 108.003 132.226C107.397 131.65 107.094 130.936 107.094 130.084C107.094 129.226 107.358 128.509 107.886 127.933C108.42 127.357 109.107 127.069 109.947 127.069C110.625 127.069 111.288 127.174 111.936 127.384L111.828 127.726C111.204 127.534 110.559 127.438 109.893 127.438C109.227 127.438 108.666 127.693 108.21 128.203C107.76 128.707 107.535 129.328 107.535 130.066C107.535 130.798 107.796 131.422 108.318 131.938C108.846 132.454 109.455 132.712 110.145 132.712C110.835 132.712 111.408 132.616 111.864 132.424L111.999 132.712ZM115.97 133.09C115.136 133.09 114.437 132.799 113.873 132.217C113.309 131.635 113.027 130.924 113.027 130.084C113.027 129.238 113.309 128.524 113.873 127.942C114.437 127.36 115.136 127.069 115.97 127.069C116.804 127.069 117.503 127.36 118.067 127.942C118.631 128.524 118.913 129.238 118.913 130.084C118.913 130.924 118.631 131.635 118.067 132.217C117.503 132.799 116.804 133.09 115.97 133.09ZM115.97 127.438C115.25 127.438 114.65 127.693 114.17 128.203C113.696 128.713 113.459 129.34 113.459 130.084C113.459 130.822 113.696 131.446 114.17 131.956C114.65 132.46 115.25 132.712 115.97 132.712C116.696 132.712 117.296 132.46 117.77 131.956C118.244 131.446 118.481 130.822 118.481 130.084C118.481 129.34 118.244 128.713 117.77 128.203C117.296 127.693 116.696 127.438 115.97 127.438ZM120.717 133V127.186C121.233 127.144 121.671 127.123 122.031 127.123C122.583 127.123 123.039 127.267 123.399 127.555C123.759 127.837 123.939 128.242 123.939 128.77C123.939 129.124 123.837 129.451 123.633 129.751C123.429 130.051 123.198 130.294 122.94 130.48C123.654 131.428 124.095 131.995 124.263 132.181C124.605 132.535 124.977 132.736 125.379 132.784L125.37 133.063C125.034 133.057 124.761 133.009 124.551 132.919C124.341 132.823 124.131 132.664 123.921 132.442C123.717 132.22 123.264 131.623 122.562 130.651C122.076 130.651 121.599 130.636 121.131 130.606V133H120.717ZM122.337 130.309C122.571 130.309 122.823 130.153 123.093 129.841C123.363 129.529 123.498 129.166 123.498 128.752C123.498 128.338 123.357 128.023 123.075 127.807C122.793 127.591 122.427 127.483 121.977 127.483C121.737 127.483 121.455 127.495 121.131 127.519V130.264C121.563 130.294 121.965 130.309 122.337 130.309ZM126.7 130.975L125.863 133H125.44L127.888 127.123H128.131L130.597 133H130.138L129.292 130.975H126.7ZM127.987 127.789C127.897 128.059 127.816 128.284 127.744 128.464L126.844 130.624H129.148L128.257 128.473C128.119 128.137 128.029 127.909 127.987 127.789ZM134.197 134.359C134.317 134.509 134.455 134.584 134.611 134.584C134.773 134.584 134.893 134.542 134.971 134.458C135.049 134.374 135.088 134.263 135.088 134.125C135.088 133.987 135.046 133.876 134.962 133.792C134.884 133.708 134.794 133.666 134.692 133.666C134.59 133.666 134.5 133.681 134.422 133.711L134.161 133.603L134.359 133.09C133.519 133.072 132.802 132.778 132.208 132.208C131.614 131.632 131.317 130.921 131.317 130.075C131.317 129.223 131.581 128.509 132.109 127.933C132.643 127.357 133.33 127.069 134.17 127.069C134.848 127.069 135.511 127.174 136.159 127.384L136.051 127.726C135.427 127.534 134.782 127.438 134.116 127.438C133.45 127.438 132.889 127.693 132.433 128.203C131.983 128.707 131.758 129.328 131.758 130.066C131.758 130.798 132.019 131.422 132.541 131.938C133.069 132.454 133.678 132.712 134.368 132.712C135.058 132.712 135.631 132.616 136.087 132.424L136.222 132.712C135.868 132.916 135.37 133.039 134.728 133.081L134.62 133.387C134.662 133.381 134.701 133.378 134.737 133.378C134.929 133.378 135.097 133.444 135.241 133.576C135.385 133.714 135.457 133.894 135.457 134.116C135.457 134.338 135.379 134.524 135.223 134.674C135.073 134.824 134.872 134.899 134.62 134.899C134.368 134.899 134.161 134.785 133.999 134.557L134.197 134.359ZM137.985 130.975L137.148 133H136.725L139.173 127.123H139.416L141.882 133H141.423L140.577 130.975H137.985ZM139.272 127.789C139.182 128.059 139.101 128.284 139.029 128.464L138.129 130.624H140.433L139.542 128.473C139.404 128.137 139.314 127.909 139.272 127.789ZM138.543 126.169C138.315 126.169 138.087 126.352 137.859 126.718L137.625 126.565C137.709 126.433 137.781 126.325 137.841 126.241C137.907 126.157 138.006 126.067 138.138 125.971C138.276 125.875 138.393 125.827 138.489 125.827C138.591 125.827 138.669 125.833 138.723 125.845C138.777 125.851 138.834 125.869 138.894 125.899C138.96 125.923 139.005 125.941 139.029 125.953C139.059 125.965 139.113 125.992 139.191 126.034C139.275 126.076 139.323 126.1 139.335 126.106C139.623 126.268 139.83 126.349 139.956 126.349C140.184 126.349 140.412 126.166 140.64 125.8L140.874 125.953C140.79 126.085 140.715 126.193 140.649 126.277C140.589 126.361 140.49 126.451 140.352 126.547C140.22 126.643 140.103 126.691 140.001 126.691C139.905 126.691 139.83 126.688 139.776 126.682C139.722 126.67 139.662 126.652 139.596 126.628C139.536 126.598 139.491 126.577 139.461 126.565C139.437 126.553 139.383 126.526 139.299 126.484C139.221 126.442 139.176 126.418 139.164 126.412C138.876 126.25 138.669 126.169 138.543 126.169ZM145.545 133.09C144.711 133.09 144.012 132.799 143.448 132.217C142.884 131.635 142.602 130.924 142.602 130.084C142.602 129.238 142.884 128.524 143.448 127.942C144.012 127.36 144.711 127.069 145.545 127.069C146.379 127.069 147.078 127.36 147.642 127.942C148.206 128.524 148.488 129.238 148.488 130.084C148.488 130.924 148.206 131.635 147.642 132.217C147.078 132.799 146.379 133.09 145.545 133.09ZM145.545 127.438C144.825 127.438 144.225 127.693 143.745 128.203C143.271 128.713 143.034 129.34 143.034 130.084C143.034 130.822 143.271 131.446 143.745 131.956C144.225 132.46 144.825 132.712 145.545 132.712C146.271 132.712 146.871 132.46 147.345 131.956C147.819 131.446 148.056 130.822 148.056 130.084C148.056 129.34 147.819 128.713 147.345 128.203C146.871 127.693 146.271 127.438 145.545 127.438Z" fill="#75BAA8"/>
</svg>
