<?xml version="1.0" standalone="no"?>
<!DOCTYPE svg PUBLIC "-//W3C//DTD SVG 20010904//EN"
 "http://www.w3.org/TR/2001/REC-SVG-20010904/DTD/svg10.dtd">
<svg version="1.0" xmlns="http://www.w3.org/2000/svg"
 width="900.000000pt" height="1200.000000pt" viewBox="0 0 900.000000 1200.000000"
 preserveAspectRatio="xMidYMid meet">

<g transform="translate(0.000000,1200.000000) scale(0.100000,-0.100000)"
fill="#000000" stroke="none">
<path d="M4554 7839 c-81 -31 -186 -144 -171 -183 12 -31 55 -17 115 37 33 29
81 64 109 79 51 28 162 51 225 46 59 -4 45 16 -19 29 -89 19 -199 15 -259 -8z"/>
<path d="M3968 7654 c-139 -99 -105 -403 86 -784 31 -60 56 -112 56 -114 0 -3
-15 0 -32 5 -45 13 -216 11 -280 -2 -69 -15 -182 -67 -267 -124 -89 -58 -226
-203 -284 -298 -90 -148 -165 -400 -174 -582 -6 -135 4 -202 43 -283 45 -93
137 -125 233 -82 l43 20 38 -34 c21 -19 54 -40 74 -47 20 -7 35 -16 33 -19 -8
-14 -26 -57 -31 -72 -3 -11 -15 -18 -29 -18 -48 0 -74 -63 -43 -105 12 -17 12
-22 -5 -44 -29 -37 -24 -69 19 -111 36 -37 37 -39 21 -59 -34 -42 6 -89 95
-112 69 -17 285 -5 426 24 63 13 113 28 110 33 -6 10 -59 10 -310 -1 -181 -7
-230 -1 -230 30 0 23 43 35 126 35 107 0 94 21 -23 37 -101 13 -163 35 -163
56 0 19 93 31 159 22 36 -5 50 -3 60 9 19 23 7 33 -51 39 -66 6 -134 33 -143
55 -12 32 22 42 112 35 71 -5 83 -4 83 9 0 10 -13 18 -37 23 -21 4 -54 13 -73
22 -33 14 -34 15 -16 29 13 9 46 14 100 14 74 0 322 21 421 36 22 3 92 19 155
36 165 43 303 59 405 47 106 -12 147 -26 246 -90 78 -50 83 -52 108 -38 14 8
30 29 36 47 8 27 14 32 41 32 41 0 58 21 51 65 -3 19 -1 37 4 40 16 10 10 84
-10 124 -21 40 -75 93 -131 128 -47 29 -163 59 -283 74 l-98 12 55 51 c83 77
109 164 86 281 -7 33 -15 75 -17 93 l-5 32 69 0 c117 0 211 36 311 119 91 76
150 179 110 194 -21 7 -46 -11 -126 -91 -95 -95 -152 -125 -247 -130 -121 -7
-272 57 -431 181 -150 118 -263 289 -369 562 -86 218 -123 411 -91 473 27 52
88 69 134 36 49 -34 151 -213 191 -334 29 -88 47 -165 82 -359 16 -90 34 -171
39 -181 15 -28 66 -61 103 -67 54 -8 160 58 141 89 -3 4 -43 8 -90 8 -46 0
-84 3 -84 7 0 49 -77 451 -100 523 -57 173 -164 348 -243 395 -62 35 -138 35
-189 -1z m13 -954 c71 -14 122 -40 192 -97 75 -63 102 -103 137 -202 31 -89
66 -142 114 -172 24 -16 44 -19 93 -17 53 3 64 1 69 -14 8 -25 53 -58 80 -58
20 0 24 -8 35 -57 33 -161 -74 -268 -323 -322 -52 -11 -151 -27 -219 -36 -150
-19 -156 -21 -170 -47 -10 -18 -8 -24 7 -36 28 -21 187 -10 305 21 191 51 345
54 541 12 133 -28 268 -117 268 -176 0 -19 -4 -21 -35 -16 -46 8 -51 -4 -15
-38 17 -16 30 -32 30 -37 0 -15 -34 -8 -69 13 -18 11 -36 18 -38 15 -3 -3 4
-24 15 -46 17 -35 20 -80 5 -80 -3 0 -23 16 -44 35 -95 85 -211 119 -389 112
-111 -4 -149 -11 -345 -61 -200 -52 -233 -58 -357 -63 -84 -4 -138 -2 -138 4
0 5 20 38 45 73 87 124 90 138 89 436 -2 350 -21 460 -72 428 -15 -10 -17 -28
-17 -130 0 -66 4 -195 9 -289 9 -196 1 -271 -41 -354 -16 -30 -41 -64 -56 -76
-51 -37 -158 -21 -219 32 -16 14 -15 18 12 52 46 57 72 142 77 256 4 88 2 104
-16 133 -76 120 -215 -116 -197 -334 5 -62 3 -74 -14 -89 -23 -21 -62 -23 -97
-4 -83 44 -95 280 -28 545 25 97 102 272 154 348 114 165 314 310 461 335 77
12 100 12 161 1z m489 -325 c46 -30 90 -55 97 -55 7 0 13 -4 13 -10 0 -11 -81
-13 -117 -4 -23 6 -53 47 -72 97 -6 15 -9 27 -8 27 2 0 41 -25 87 -55z m-982
-630 c-5 -81 -58 -213 -79 -199 -23 14 11 206 47 262 25 39 37 15 32 -63z"/>
<path d="M4112 6240 c-37 -35 -88 -40 -127 -14 -31 20 -33 1 -3 -20 38 -27 98
-20 141 15 34 28 47 49 30 49 -5 0 -23 -14 -41 -30z"/>
<path d="M4915 7403 c-65 -73 -118 -97 -196 -90 -45 4 -61 1 -71 -10 -36 -43
96 -70 185 -39 85 31 167 114 167 171 0 41 -30 29 -85 -32z"/>
<path d="M5027 7274 c-8 -9 11 -44 23 -44 6 0 10 6 10 14 0 16 -24 38 -33 30z"/>
<path d="M4890 7177 c0 -8 7 -21 16 -28 14 -11 15 -10 12 11 -3 26 -28 41 -28
17z"/>
<path d="M4720 7110 c0 -11 5 -20 10 -20 6 0 10 9 10 20 0 11 -4 20 -10 20 -5
0 -10 -9 -10 -20z"/>
<path d="M4848 6664 c-30 -27 -46 -34 -78 -34 -62 0 -114 -26 -149 -75 -17
-24 -31 -46 -31 -49 0 -15 137 -5 176 13 66 30 133 119 122 165 -2 11 -12 6
-40 -20z m3 -41 c-32 -59 -109 -103 -181 -102 l-45 0 33 29 c24 22 42 30 70
30 25 0 53 10 82 29 54 36 53 35 41 14z"/>
</g>
</svg>
