<?xml version="1.0" standalone="no"?>
<!DOCTYPE svg PUBLIC "-//W3C//DTD SVG 20010904//EN"
 "http://www.w3.org/TR/2001/REC-SVG-20010904/DTD/svg10.dtd">
<svg version="1.0" xmlns="http://www.w3.org/2000/svg"
 width="554.000000pt" height="800.000000pt" viewBox="0 0 554.000000 800.000000"
 preserveAspectRatio="xMidYMid meet">

<g transform="translate(0.000000,800.000000) scale(0.100000,-0.100000)"
fill="#000000" stroke="none">
<path d="M3600 5716 c-395 -83 -645 -347 -760 -801 -16 -61 -34 -156 -41 -212
l-12 -102 -27 79 c-134 381 -472 678 -848 746 -600 107 -1171 -411 -1172
-1061 0 -557 338 -1088 955 -1502 50 -33 155 -98 235 -143 356 -203 597 -384
746 -558 70 -82 133 -197 136 -250 4 -57 -12 -68 233 147 514 451 955 890
1193 1189 82 104 205 274 236 327 21 36 27 44 -106 -139 -163 -225 -292 -371
-593 -672 -285 -285 -504 -489 -805 -748 l-135 -116 -7 35 c-11 50 -60 142
-109 206 -138 177 -383 367 -739 574 -368 215 -574 373 -774 594 -310 344
-477 788 -436 1160 41 378 263 695 595 852 144 68 220 84 390 84 153 -1 228
-16 367 -75 198 -84 398 -265 515 -465 50 -85 121 -249 139 -318 l16 -66 -31
-62 c-17 -33 -33 -77 -37 -96 -6 -34 -8 -35 -42 -28 -67 12 -122 47 -178 111
-63 71 -83 80 -199 87 -59 4 -99 13 -152 36 -40 17 -79 31 -88 31 -28 0 -63
-46 -81 -106 -28 -99 -72 -170 -147 -239 -44 -41 -73 -76 -81 -100 l-13 -38
-11 34 c-6 19 -16 69 -22 113 -5 43 -17 93 -26 112 -43 91 -175 98 -221 11
-24 -46 -20 -138 9 -218 23 -63 24 -67 7 -88 -24 -29 -42 -149 -37 -235 6 -94
38 -158 152 -310 106 -142 323 -365 383 -395 82 -41 150 -17 236 83 27 31 67
66 89 77 22 11 42 29 45 39 3 10 17 20 33 23 21 5 37 21 66 72 32 55 42 65 59
59 59 -19 82 -16 116 14 39 35 40 45 24 276 l-8 130 40 -40 c47 -45 54 -75 42
-179 -5 -48 -21 -101 -48 -163 -59 -134 -122 -326 -124 -378 -2 -38 2 -48 28
-69 17 -14 48 -30 70 -37 22 -6 48 -18 57 -26 9 -8 29 -15 45 -16 18 0 38 -13
55 -32 15 -17 52 -42 80 -55 45 -20 69 -24 158 -24 151 1 177 17 310 194 63
83 126 129 294 212 163 81 230 152 212 224 l-6 24 42 -24 c47 -27 102 -32 143
-13 15 7 43 42 70 89 25 43 82 120 126 171 170 194 224 309 217 461 -8 177
-109 297 -354 420 -142 71 -292 133 -372 152 -88 22 -220 17 -273 -10 -73 -37
-89 -69 -40 -80 54 -12 107 -60 140 -127 34 -70 76 -238 116 -463 15 -82 32
-181 39 -219 l13 -70 -30 40 c-52 65 -117 122 -171 149 -62 31 -164 49 -226
40 -42 -5 -44 -4 -26 10 11 8 23 15 28 15 18 0 7 50 -17 79 -53 63 -228 63
-314 0 -48 -34 -57 -62 -65 -202 -8 -139 -29 -172 -62 -94 -15 35 -18 66 -16
187 1 80 5 171 10 204 l7 58 47 18 c109 41 215 150 289 296 36 70 41 89 36
124 -8 62 -17 66 -82 40 -77 -31 -179 -105 -248 -179 l-57 -62 0 33 c0 120 37
321 86 467 116 349 326 562 641 648 86 24 116 27 243 27 158 0 242 -14 358
-60 227 -90 426 -277 529 -501 59 -127 85 -246 90 -417 10 -286 -45 -524 -178
-774 -58 -109 -63 -129 -13 -52 93 144 174 344 210 515 26 125 26 385 0 505
-84 392 -362 692 -733 792 -100 26 -354 34 -453 14z m185 -989 c92 -32 302
-129 390 -180 92 -54 188 -150 223 -224 23 -50 27 -70 26 -148 -1 -145 -43
-229 -218 -433 -53 -62 -110 -140 -126 -172 -34 -68 -61 -90 -108 -90 -66 0
-98 30 -170 161 -42 77 -58 135 -98 364 -87 499 -131 618 -245 669 -27 11 -49
23 -49 26 0 8 57 41 88 51 50 16 211 3 287 -24z m-604 6 c5 -83 -69 -220 -173
-319 -49 -47 -114 -90 -151 -99 -24 -6 -24 -6 -29 77 l-5 83 46 58 c54 67 148
146 223 187 61 34 88 38 89 13z m-1048 -215 c60 -30 133 -48 200 -48 73 0 100
-14 161 -85 49 -57 127 -104 171 -105 43 -1 45 -10 28 -115 -9 -55 -18 -102
-20 -104 -1 -2 -23 15 -49 37 -54 48 -136 82 -216 89 -62 6 -82 -10 -28 -21
60 -11 140 -57 180 -103 22 -25 39 -48 37 -50 -2 -2 -33 10 -68 26 -67 31
-153 49 -162 34 -8 -12 29 -93 54 -119 15 -16 18 -29 13 -48 -3 -15 -11 -25
-18 -23 -6 1 -29 40 -51 85 -37 77 -55 99 -55 70 0 -22 57 -135 79 -157 29
-29 43 -26 70 10 l23 31 -30 31 c-27 29 -62 87 -62 103 0 13 72 -8 150 -43 44
-20 83 -33 86 -30 18 18 -35 92 -100 138 -21 16 -36 29 -32 29 19 0 93 -46
132 -82 49 -45 50 -62 11 -148 -17 -36 -20 -63 -19 -140 1 -52 5 -122 9 -155
4 -33 7 -72 5 -87 -4 -32 -44 -78 -69 -78 -14 0 -15 2 -4 9 8 5 11 16 8 25 -5
12 -20 16 -57 16 -70 0 -110 22 -110 60 0 16 5 32 10 35 14 8 13 25 -1 25 -17
0 -38 -31 -39 -55 0 -33 28 -64 69 -76 l38 -11 -49 -74 c-27 -41 -52 -74 -56
-74 -4 0 -42 20 -84 45 -43 25 -80 45 -83 45 -19 0 4 -21 60 -55 39 -24 64
-46 62 -55 -1 -8 -18 -24 -37 -35 -19 -11 -66 -52 -105 -92 -135 -137 -159
-133 -360 70 -127 129 -285 329 -323 410 -38 80 -46 140 -33 236 7 47 19 96
27 109 l15 23 44 -40 c66 -61 135 -56 135 10 0 18 -9 35 -27 49 -24 18 -35 21
-84 15 l-56 -7 -24 54 c-18 41 -23 71 -24 131 0 76 1 79 33 108 58 52 128 32
156 -44 8 -23 20 -78 27 -122 13 -91 27 -132 57 -158 26 -24 47 -14 31 15 -19
35 0 70 81 148 83 81 117 137 145 237 18 64 45 103 71 103 8 0 34 -10 57 -22z
m663 -214 c-3 -8 -16 -14 -30 -14 -23 0 -24 2 -14 38 6 20 18 51 27 67 l16 30
3 -54 c2 -29 1 -60 -2 -67z m1 -231 c-2 -195 -1 -211 20 -255 18 -39 27 -48
47 -48 37 0 46 26 57 163 10 128 18 151 70 189 33 25 128 42 185 33 32 -4 56
-16 76 -35 32 -33 35 -48 11 -57 -10 -4 -29 -15 -42 -25 -13 -10 -40 -18 -62
-18 -64 0 -138 -20 -149 -40 -16 -30 -12 -97 7 -115 12 -12 26 -15 52 -10 50
9 81 34 115 93 l29 51 64 7 c216 23 372 -95 500 -378 56 -124 64 -173 35 -220
-28 -45 -55 -63 -219 -147 -168 -86 -204 -115 -294 -237 -87 -119 -130 -146
-239 -152 -94 -5 -175 16 -224 59 l-35 30 19 42 c48 104 2 257 -76 257 -12 0
-9 -8 14 -34 50 -58 54 -183 6 -231 -21 -20 -42 -9 -64 36 -18 35 -54 59 -67
45 -4 -3 1 -14 10 -24 25 -28 20 -34 -12 -17 -45 23 -61 44 -61 78 0 37 65
232 120 358 47 109 64 187 58 269 -4 56 -8 65 -41 95 -43 39 -48 73 -17 112
16 21 19 36 15 77 -3 29 3 93 12 146 17 92 19 95 48 101 17 4 31 7 32 8 1 0 1
-92 0 -206z m-1145 -30 c22 -20 23 -37 2 -57 -18 -19 -42 -10 -87 33 l-28 26
23 6 c41 12 71 9 90 -8z m1528 -49 c0 -14 -51 -90 -67 -100 -10 -6 -33 -15
-50 -18 -31 -7 -32 -6 -39 30 -8 46 3 65 47 81 35 12 109 17 109 7z"/>
<path d="M4560 3730 c-6 -11 -8 -20 -6 -20 3 0 10 9 16 20 6 11 8 20 6 20 -3
0 -10 -9 -16 -20z"/>
<path d="M4500 3630 c-6 -11 -8 -20 -6 -20 3 0 10 9 16 20 6 11 8 20 6 20 -3
0 -10 -9 -16 -20z"/>
</g>
</svg>
