<svg width="180" height="128" viewBox="0 0 180 128" fill="none" xmlns="http://www.w3.org/2000/svg">
<path d="M118.467 0.317364C116.175 0.753727 114.895 1.09658 113.151 1.74074C106.303 4.25502 100.72 9.29399 97.5559 15.8083C96.1919 18.6342 95.4888 20.9096 94.9684 24.2758C94.5747 26.894 94.5325 29.0966 94.8419 31.0706C96.0513 38.6862 100.917 44.681 108.061 47.3096C112.42 48.9304 116.583 49.1589 120.562 47.9953C129.759 45.3252 136.72 39.2784 140.109 31.0083C141.726 27.0498 142.359 22.3849 141.811 18.3537C141.403 15.2888 141.206 14.3433 140.742 13.055C139.364 9.26282 136.383 5.61606 132.825 3.41347C129.97 1.63684 127.312 0.691387 123.881 0.223854C121.547 -0.0982208 120.548 -0.0774422 118.467 0.317364Z" fill="#7CC515" fill-opacity="0.5"/>
<path d="M53.6106 0.743359C48.0138 1.49141 42.656 4.86803 39.5763 9.57452C38.2544 11.6109 37.5653 13.4187 37.031 16.2758C36.6794 18.1148 36.6794 22.4369 37.0169 24.4317C38.62 33.7823 44.47 41.5122 53.245 45.8447C55.0591 46.7382 58.0403 47.8291 60.0513 48.3278C61.5138 48.6914 61.8091 48.7226 63.5528 48.7745C64.9028 48.8057 65.8169 48.7745 66.7169 48.6498C70.795 48.1304 74.5075 46.52 77.306 44.068C80.6669 41.1174 82.8466 37.1693 83.6903 32.4836C83.9153 31.2161 83.9153 26.9563 83.6763 25.5226C82.3263 17.2317 78.2622 10.5927 71.695 5.93816C68.5591 3.71479 65.381 2.28102 61.4435 1.3044C58.631 0.608292 56.0013 0.42128 53.6106 0.743359Z" fill="#7CC515" fill-opacity="0.5"/>
<path d="M160.289 38.6654C154.593 39.3511 149.545 41.294 145.059 44.5252C142.106 46.6654 139.772 49.0135 137.789 51.8498C135.356 55.3408 134.245 57.9797 133.275 62.6135C132.839 64.7226 132.839 67.8291 133.275 69.6057C134.203 73.3252 136.158 76.3693 139.097 78.6654C141.698 80.7018 144.792 81.9278 148.279 82.3122C150.628 82.5719 153.989 82.2602 157.181 81.4706C168.543 78.6654 177.825 69.1589 179.498 58.6135C179.611 57.8654 179.709 57.055 179.709 56.8057C179.709 56.5459 179.779 55.9537 179.878 55.4758C180.018 54.7382 180.004 54.3849 179.793 53.1278C179.287 50.0836 178.612 48.307 177.108 46.042C174.633 42.3226 170.484 39.6836 165.731 38.8109C164.254 38.5408 161.864 38.468 160.289 38.6654Z" fill="#7CC515" fill-opacity="0.5"/>
<path d="M15.5293 41.2835C15.3043 41.3043 14.5027 41.4186 13.7715 41.5329C8.17459 42.4576 3.57615 45.4082 1.81834 49.2316C1.24177 50.5095 0.735523 52.1199 0.482398 53.5225C0.369898 54.2082 0.201148 55.1225 0.130836 55.5485C-0.0801015 56.6809 -0.037914 57.4913 0.271461 59.5173C0.623023 61.7511 0.848023 62.7069 1.48084 64.4835C2.83084 68.3173 5.6574 72.442 9.07458 75.6004C10.3121 76.7329 12.9418 78.6758 14.4746 79.59C18.2574 81.8238 22.7715 83.4654 27.2996 84.2342C29.2543 84.5667 31.9121 84.5459 33.8105 84.1822C39.0418 83.1745 43.5418 79.9537 45.5246 75.7978C46.0449 74.7173 46.5933 72.7537 46.8183 71.1641C47.0433 69.6576 46.9308 65.855 46.6215 64.3796C44.6668 55.2264 37.1855 47.2472 26.6246 43.0394C23.9949 42.0004 22.7715 41.668 20.4652 41.3667C19.3402 41.2316 16.6824 41.1796 15.5293 41.2835Z" fill="#7CC515" fill-opacity="0.5"/>
<path d="M88.1622 66.6758C77.1794 67.5589 67.1106 71.0083 58.9403 76.6602C56.7466 78.1771 55.495 79.2368 53.1185 81.5745C47.0856 87.4862 42.2341 93.7407 38.9013 99.8602C37.3122 102.8 36.2575 105.367 34.6403 110.25C34.0778 111.954 33.9794 112.411 33.9091 113.637C33.6841 118.354 36.9044 122.946 42.2903 125.543C45.5106 127.102 48.3513 127.632 53.0341 127.517C58.5747 127.393 62.2169 126.697 73.3966 123.621C81.8341 121.304 85.7575 120.525 90.7638 120.172C95.2919 119.86 95.9388 119.839 98.1044 119.954C103.251 120.245 107.554 121.107 115.162 123.393C127.692 127.143 127.453 127.081 129.787 127.434C132.853 127.902 135.426 128.058 136.776 127.871C137.142 127.808 138.112 127.694 138.928 127.59C143.4 127.071 147.365 125.408 149.812 123.039C151.893 121.034 152.709 118.904 152.709 115.6C152.695 111.684 151.106 107.798 146.958 101.523C145.256 98.9563 144.356 97.8446 139.954 92.9096C130.068 81.8238 121.926 75.3719 112.068 70.7901C106.795 68.3485 102.154 67.1745 95.6856 66.6654C94.195 66.5407 89.681 66.5511 88.1622 66.6758Z" fill="#7CC515" fill-opacity="0.5"/>
</svg>
